<?xml version="1.0" encoding="UTF-8"?><svg id="Layer_2" xmlns="http://www.w3.org/2000/svg" width="291.01" height="243.46" viewBox="0 0 291.01 243.46"><defs><style>.cls-1{fill:#009345;}.cls-2{fill:#ec1c24;}.cls-3{fill:#8bc53f;}.cls-4{fill:#3b2314;}.cls-5{fill:none;stroke:#fff;stroke-linecap:round;stroke-miterlimit:10;stroke-width:4px;}</style></defs><g id="Layer_1-2"><path class="cls-1" d="m291.01,183.03c0,33.37-51.61,60.43-115.27,60.43-55.34,0-101.57-20.45-112.69-47.71h0c-1.69-4.1-2.56-8.36-2.56-12.72,0-1.12.06-2.23.18-3.33,3.29-31.83,53.55-57.1,115.09-57.1h.7c.76,0,1.52,0,2.27.02.83.01,1.65.02,2.47.04,12.3.3,24.12,1.62,35.12,3.79,1.44.28,2.86.58,4.27.89,20.68,4.58,38.28,12.23,50.71,21.87.02.01.03.02.04.03,12.42,9.64,19.68,21.27,19.68,33.79Z"/><path class="cls-1" d="m232.31,140.1c0,.32-.01.65-.03.97v.1c-1.11,32.31-52.68,58.32-116.13,58.32-7.9,0-15.62-.4-23.08-1.18-6.03-.61-11.89-1.47-17.54-2.56h-.01C31.41,187.33,0,165.59,0,140.1c0-5.48,1.45-10.78,4.18-15.82-.88,2.58-1.35,5.22-1.35,7.92,0,21.33,28.97,39.64,70.3,47.5,3.3-31.83,53.71-57.1,115.42-57.1h.7c.76,0,1.52,0,2.28.02.83.01,1.65.02,2.48.04,12.34.24,24.14,1.47,35.08,3.52.05.09.09.18.14.27,2.01,4.38,3.08,8.95,3.08,13.65Z"/><path class="cls-3" d="m288.5,172.17c0,28.52-48.67,51.63-108.71,51.63-41.73,0-77.96-11.16-96.18-27.54-5.85-5.25-9.85-11.05-11.57-17.18-.64-2.26-.97-4.57-.97-6.91,0-28.4,48.29-51.44,108.02-51.62h.7c.76,0,1.52,0,2.28.02.83.01,1.65.02,2.48.04,12.34.24,24.14,1.47,35.08,3.52,1.47.27,2.93.56,4.37.87,21.61,4.57,39.5,12.4,50.91,22.16.02.01.03.02.04.03,8.64,7.4,13.55,15.92,13.55,24.98Z"/><path class="cls-3" d="m229.29,126.18c-10.94-2.05-22.74-3.28-35.08-3.52-.83-.02-1.65-.03-2.48-.04-.76-.02-1.52-.02-2.28-.02h-.7c-61.71,0-112.12,25.27-115.42,57.1C32,171.84,3.02,153.53,3.02,132.2c0-2.7.47-5.34,1.35-7.92h0s.01-.02.01-.03c10.46-19.37,39.65-34.77,76.98-40.79.03,0,.06-.01.09-.01,6.07-.98,12.35-1.71,18.81-2.16.63-.05,1.25-.09,1.89-.13h.02c.69-.04,1.38-.08,2.07-.12.43-.02.86-.05,1.29-.06.99-.05,1.99-.09,2.99-.12.21-.01.42-.02.63-.02,1.09-.04,2.19-.07,3.29-.08.26-.01.53-.02.79-.02,1.03-.01,2.07-.02,3.11-.02h.67c.25,0,.51,0,.76.01,1,0,2,.01,2.99.04.47,0,.95.01,1.42.03.72.01,1.45.03,2.17.06.67.02,1.35.05,2.02.08,5.64.25,11.15.7,16.53,1.34.16.02.32.04.48.06,42.37,5.16,75.74,22.2,85.9,43.84Z"/><ellipse class="cls-4" cx="108.5" cy="122.6" rx="14.41" ry="4.75"/><path class="cls-5" d="m108.35,2c0,41.19,0,82.37,0,123.56"/><path class="cls-2" d="m168.74,19.66L110.1.14c-.79-.26-1.6.32-1.6,1.15v39.05c0,.83.81,1.42,1.6,1.15l58.64-19.53c1.11-.37,1.11-1.94,0-2.31Z"/></g></svg>