<?xml version="1.0" encoding="UTF-8"?><svg id="Layer_2" xmlns="http://www.w3.org/2000/svg" width="287.93" height="228.73" viewBox="0 0 287.93 228.73"><defs><style>.cls-1{fill:#f15a24;}.cls-2{fill:#fff;}.cls-3{fill:#ff2400;}.cls-4{fill:#bebebe;}.cls-5{fill:#1049a9;}.cls-6{fill:gray;}.cls-7{fill:#231f20;stroke:#fff;stroke-miterlimit:10;}</style></defs><g id="Layer_1-2"><rect class="cls-6" y="159.73" width="20" height="13.33" rx="1.61" ry="1.61"/><path class="cls-2" d="m287.93,109.46v46.17c0,17.87-14.49,32.36-32.36,32.36h-32.67c-5.81,8.67-15.69,14.37-26.9,14.37H51.26c-17.87,0-32.36-14.48-32.36-32.36V32.36C18.9,14.49,33.39,0,51.26,0h144.74c17.87,0,32.36,14.49,32.36,32.36v44.74h27.21c17.87,0,32.36,14.49,32.36,32.36Z"/><circle class="cls-7" cx="66.15" cy="184.65" r="43.58"/><circle class="cls-7" cx="243.74" cy="184.65" r="43.58"/><path class="cls-4" d="m112.18,93.26c-1.8-3.25-2.83-6.98-2.83-10.96s1.03-7.71,2.83-10.96c-.91-.23-1.86-.36-2.84-.36h-23.68c-1.16,3.57-1.78,7.37-1.78,11.32s.63,7.75,1.78,11.32h23.68c.98,0,1.93-.13,2.83-.36Z"/><path class="cls-4" d="m120.66,62.71c3.33-1.93,7.2-3.04,11.32-3.04h17.65c-6.74-8.61-17.22-14.15-28.97-14.15s-22.23,5.54-28.97,14.15h17.65c4.12,0,7.99,1.11,11.32,3.04Z"/><path class="cls-4" d="m120.66,119.08c11.75,0,22.23-5.54,28.97-14.15h-17.65c-4.12,0-7.99-1.11-11.32-3.04-3.33,1.93-7.2,3.04-11.32,3.04h-17.65c6.74,8.61,17.22,14.15,28.97,14.15Z"/><path class="cls-4" d="m129.14,71.35c1.8,3.25,2.83,6.98,2.83,10.96s-1.03,7.71-2.83,10.96c.91.23,1.86.36,2.84.36h23.68c1.16-3.57,1.78-7.37,1.78-11.32s-.63-7.75-1.78-11.32h-23.68c-.98,0-1.93.13-2.83.36Z"/><path class="cls-3" d="m120.66,101.9c-3.55-2.06-6.49-5.05-8.48-8.64-.91.23-1.86.36-2.83.36h-23.68c1.34,4.14,3.4,7.96,6.03,11.32h17.65c4.12,0,7.99-1.11,11.32-3.04Z"/><path class="cls-2" d="m120.66,62.71c3.55,2.06,6.49,5.05,8.48,8.64.91-.23,1.86-.36,2.83-.36h23.68c-1.34-4.14-3.4-7.96-6.03-11.32h-17.65c-4.12,0-7.99,1.11-11.32,3.04Z"/><path class="cls-3" d="m112.18,71.35c4.87,1.26,8.48,5.7,8.48,10.96s3.61,9.7,8.48,10.96c1.8-3.25,2.83-6.98,2.83-10.96s-1.03-7.71-2.83-10.96c-1.99-3.59-4.93-6.58-8.48-8.64-3.33-1.93-7.2-3.04-11.32-3.04h-17.65c-2.63,3.36-4.68,7.18-6.03,11.32h23.68c.98,0,1.93.13,2.84.36Z"/><path class="cls-2" d="m129.14,93.26c-4.87-1.26-8.48-5.7-8.48-10.96s-3.61-9.7-8.48-10.96c-1.8,3.25-2.83,6.98-2.83,10.96s1.03,7.71,2.83,10.96c1.99,3.59,4.93,6.58,8.48,8.64,3.33,1.93,7.2,3.04,11.32,3.04h17.65c2.63-3.36,4.68-7.18,6.03-11.32h-23.68c-.98,0-1.93-.13-2.84-.36Z"/><path class="cls-5" d="m158.67,44.29c-10.15-10.15-23.65-15.74-38.01-15.74s-27.86,5.59-38.01,15.74c-10.15,10.15-15.74,23.65-15.74,38.01s5.59,27.86,15.74,38.01c10.15,10.15,23.65,15.74,38.01,15.74s27.86-5.59,38.01-15.74c10.15-10.15,15.74-23.65,15.74-38.01s-5.59-27.86-15.74-38.01Zm-73.01,49.33c-1.16-3.57-1.78-7.37-1.78-11.32s.63-7.75,1.78-11.32c1.34-4.14,3.4-7.96,6.03-11.32,6.74-8.61,17.22-14.15,28.97-14.15s22.23,5.54,28.97,14.15c2.63,3.36,4.68,7.18,6.03,11.32,1.16,3.57,1.78,7.37,1.78,11.32s-.63,7.75-1.78,11.32c-1.34,4.14-3.4,7.96-6.03,11.32-6.74,8.61-17.22,14.15-28.97,14.15s-22.23-5.54-28.97-14.15c-2.63-3.36-4.68-7.18-6.03-11.32Zm50.76-58.15l3.06.77-.75.96-2.1-.53c-1-.25-1.64-.01-2.57,1.18l-1.51,1.93c-.75.95-.76,1.58.31,1.85l1.94.49-.74.96-2.83-.71c-2.75-.69-2.66-1.96-1.32-3.68l1-1.26c1.34-1.72,2.92-2.61,5.51-1.96Zm-9.74-2.16l3.51.2-.56,1.09-2.58-.14c-.69-.04-1.46.21-1.88,1.02-.42.82-.34,1.13.64,1.19,2.77.15,2.61,1.18,2.1,2.17l-.14.26c-.89,1.74-2.41,2.12-4.78,1.99l-3.54-.2.55-1.09,2.67.15c1.04.06,1.71-.21,2.21-1.17.45-.88.32-1.14-.51-1.19-2.81-.16-2.84-1.03-2.22-2.23l.09-.17c.78-1.5,2.23-1.99,4.43-1.86Zm-6.08-.51l-2.72,8.27-2.93.3,2.72-8.27,2.93-.3Zm-9.99,1.12c2.86-.83,3.76.2,3.47,2.37l-.22,1.59c-.29,2.15-1.73,3.88-4.6,4.72l-4.3,1.25,1.17-8.63,4.48-1.31Zm-28.82,78.64l-1.7-2.36c-1.66-2.3-.77-3.21,1.36-3.66l1.58-.32c2.14-.45,3.92-.11,5.48,2.05l1.84,2.56-1.19.25-1.26-1.75c-.6-.83-1.24-1.06-2.72-.76l-2.4.5c-1.19.24-1.6.72-.96,1.61l1.17,1.62-1.19.26Zm4.28,4.93c-2-1.79-1.47-3,.5-3.89l1.62-.72c1.99-.9,3.95-.81,5.95.98l1.16,1.04c2.02,1.8,1.49,2.99-.5,3.89l-1.62.72c-1.97.89-3.93.82-5.95-.98l-1.16-1.04Zm11.7,8.39l4.8-3.82c.98-.78.66-1.05.16-1.31l-1.44-.75-5.86,4.66-2.61-1.36,6.81-5.42,5.25,2.73c1.73.9,1.71,1.69-.05,3.09l-4.44,3.54-2.61-1.36Zm11.55,4.32l3.69-4.9c.75-1,.38-1.18-.17-1.31l-1.58-.37-4.51,5.98-2.87-.66,5.24-6.95,5.76,1.33c1.9.44,2.08,1.21.72,3.01l-3.41,4.53-2.87-.66Zm13.36,1.31h-6.78s3.54-7.96,3.54-7.96h6.79s-.5,1.12-.5,1.12h-3.84s-1.04,2.33-1.04,2.33h3.33s-.46,1.04-.46,1.04h-3.33s-1.06,2.36-1.06,2.36h3.83s-.49,1.12-.49,1.12Zm9.36-1.29l-2.86.56c-2.78.55-3.24-.65-2.76-2.76l.37-1.57c.48-2.13,1.53-3.61,4.15-4.12l3.1-.61-.27,1.19-2.12.42c-1.01.2-1.49.69-1.83,2.16l-.54,2.39c-.27,1.18-.01,1.76,1.07,1.54l1.96-.38-.26,1.19Zm4.37-1.19l.24-7.48-2.07.84.04-1.22,6.87-2.8-.04,1.22-2.05.84-.24,7.48-2.74,1.12Zm7.3-3.14l-1.13-8.64,2.51-1.54,1.13,8.64-2.51,1.54Zm9.45-6.55l-1.15,1.05c-1.99,1.8-3.13,1.15-3.82-.9l-.55-1.69c-.69-2.07-.39-4.01,1.59-5.81l1.15-1.05c2-1.82,3.13-1.17,3.81.9l.55,1.69c.68,2.05.41,4-1.59,5.81Zm8.42-9.71l-3.3-5.18c-.68-1.06-.98-.77-1.29-.3l-.9,1.35,4.02,6.32-1.63,2.46-4.68-7.35,3.27-4.93c1.08-1.63,1.86-1.52,3.07.38l3.05,4.79-1.63,2.46Z"/><path class="cls-5" d="m152.62,115.83l-.68-2.08c-.54-1.63-1.05-1.75-1.76-1.1-.66.6-.94,1.24-.39,2.92l.71,2.16c.46,1.39,1,1.66,1.69,1.03.71-.65.89-1.53.43-2.92Z"/><path class="cls-5" d="m107.95,41.83l1.22-.35c1.14-.33,1.62-1.29,1.83-2.79l.2-1.48c.2-1.52-.03-2.28-1.18-1.94l-1.22.36-.85,6.21Z"/><path class="cls-5" d="m90.69,117.62l2-.89c1.56-.71,1.63-1.23.91-1.86-.67-.6-1.34-.81-2.94-.08l-2.07.93c-1.33.6-1.54,1.17-.84,1.79.72.64,1.61.73,2.95.12Z"/><path class="cls-2" d="m82.78,109.07l2.4-.5c1.48-.3,2.12-.07,2.72.76l1.26,1.75,1.19-.25-1.84-2.56c-1.56-2.17-3.34-2.5-5.48-2.05l-1.58.32c-2.13.44-3.02,1.36-1.36,3.66l1.7,2.36,1.19-.26-1.17-1.62c-.64-.9-.23-1.37.96-1.61Z"/><path class="cls-2" d="m93.18,119.51l1.62-.72c1.99-.9,2.52-2.09.5-3.89l-1.16-1.04c-2-1.79-3.96-1.88-5.95-.98l-1.62.72c-1.97.89-2.5,2.1-.5,3.89l1.16,1.04c2.02,1.8,3.98,1.87,5.95.98Zm-4.6-3.8l2.07-.93c1.61-.72,2.28-.51,2.94.08.72.64.65,1.16-.91,1.86l-2,.89c-1.34.61-2.24.52-2.95-.12-.7-.62-.49-1.19.84-1.79Z"/><path class="cls-2" d="m104.83,123.71c1.76-1.41,1.79-2.19.05-3.09l-5.25-2.73-6.81,5.42,2.61,1.36,5.86-4.66,1.44.75c.5.26.82.53-.16,1.31l-4.8,3.82,2.61,1.36,4.44-3.54Z"/><path class="cls-2" d="m115.61,126.34c1.36-1.8,1.18-2.57-.72-3.01l-5.76-1.33-5.24,6.95,2.87.66,4.51-5.98,1.58.37c.55.13.93.3.17,1.31l-3.69,4.9,2.87.66,3.41-4.53Z"/><polygon class="cls-2" points="120.4 128.05 123.73 128.05 124.2 127.01 120.86 127.01 121.9 124.68 125.74 124.68 126.24 123.57 119.45 123.57 115.91 131.52 122.68 131.52 123.17 130.41 119.34 130.41 120.4 128.05"/><path class="cls-2" d="m129.27,127.89l.54-2.39c.34-1.47.82-1.96,1.83-2.16l2.12-.42.27-1.19-3.1.61c-2.62.51-3.67,1.99-4.15,4.12l-.37,1.57c-.48,2.12-.02,3.31,2.76,2.76l2.86-.56.26-1.19-1.96.38c-1.08.21-1.34-.37-1.07-1.54Z"/><polygon class="cls-2" points="139.39 120.45 141.45 119.61 141.49 118.39 134.62 121.19 134.58 122.41 136.66 121.56 136.41 129.05 139.15 127.93 139.39 120.45"/><polygon class="cls-2" points="145.1 115.73 142.59 117.27 143.71 125.91 146.23 124.37 145.1 115.73"/><path class="cls-2" d="m154.76,113.55l-.55-1.69c-.69-2.07-1.81-2.72-3.81-.9l-1.15,1.05c-1.98,1.8-2.28,3.74-1.59,5.81l.55,1.69c.68,2.05,1.83,2.7,3.82.9l1.15-1.05c2-1.82,2.28-3.76,1.59-5.81Zm-2.56,5.2c-.69.63-1.24.36-1.69-1.03l-.71-2.16c-.55-1.67-.27-2.32.39-2.92.71-.65,1.22-.53,1.76,1.1l.68,2.08c.46,1.4.28,2.28-.43,2.92Z"/><path class="cls-2" d="m160.17,102.41c-1.21-1.9-1.99-2.01-3.07-.38l-3.27,4.93,4.68,7.35,1.63-2.46-4.02-6.32.9-1.35c.31-.47.61-.76,1.29.3l3.3,5.18,1.63-2.46-3.05-4.79Z"/><path class="cls-2" d="m104.96,43.86l4.3-1.25c2.87-.84,4.31-2.57,4.6-4.72l.22-1.59c.29-2.16-.61-3.2-3.47-2.37l-4.48,1.31-1.17,8.63Zm5.06-8.6c1.14-.33,1.38.43,1.18,1.94l-.2,1.48c-.21,1.5-.69,2.45-1.83,2.79l-1.22.35.85-6.21,1.22-.36Z"/><polygon class="cls-2" points="114.96 41.38 117.89 41.08 120.61 32.8 117.68 33.1 114.96 41.38"/><path class="cls-2" d="m122.26,35.18l-.09.17c-.62,1.2-.59,2.08,2.22,2.23.83.05.96.31.51,1.19-.5.96-1.17,1.23-2.21,1.17l-2.67-.15-.55,1.09,3.54.2c2.37.13,3.88-.25,4.78-1.99l.14-.26c.51-.99.67-2.02-2.1-2.17-.98-.05-1.06-.37-.64-1.19.42-.82,1.19-1.06,1.88-1.02l2.58.14.56-1.09-3.51-.2c-2.19-.12-3.64.36-4.43,1.86Z"/><path class="cls-2" d="m130.92,37.44l-1,1.26c-1.34,1.71-1.43,2.99,1.32,3.68l2.83.71.74-.96-1.94-.49c-1.07-.27-1.06-.9-.31-1.85l1.51-1.93c.93-1.19,1.57-1.43,2.57-1.18l2.1.53.75-.96-3.06-.77c-2.59-.65-4.17.24-5.51,1.96Z"/><ellipse class="cls-1" cx="273.02" cy="92.35" rx="5.9" ry="15.34" transform="translate(14.66 220.1) rotate(-45)"/></g></svg>