<?xml version="1.0" encoding="UTF-8"?><svg id="Layer_2" xmlns="http://www.w3.org/2000/svg" width="270.03" height="229.23" viewBox="0 0 270.03 229.23"><defs><style>.cls-1,.cls-2{fill:#fff;}.cls-3{fill:#ff2400;}.cls-4{fill:#bebebe;}.cls-5{fill:#1049a9;}.cls-2,.cls-6{stroke:#fff;stroke-miterlimit:10;}.cls-6{fill:#231f20;}</style></defs><g id="Layer_2-2"><rect class="cls-2" x=".5" y=".5" width="209.46" height="202.36" rx="32.36" ry="32.36"/><rect class="cls-2" x="60.07" y="77.59" width="209.46" height="110.89" rx="32.36" ry="32.36"/><circle class="cls-6" cx="47.75" cy="185.15" r="43.58"/><circle class="cls-6" cx="225.34" cy="185.15" r="43.58" transform="translate(6.49 377.92) rotate(-80.78)"/><path class="cls-4" d="m96.42,97.1c-1.87-3.37-2.95-7.26-2.95-11.38s1.07-8.01,2.95-11.38c-.94-.24-1.93-.37-2.95-.37h-24.6c-1.2,3.71-1.85,7.66-1.85,11.76s.65,8.05,1.85,11.76h24.6c1.02,0,2-.13,2.95-.37Z"/><path class="cls-4" d="m105.23,65.36c3.46-2.01,7.48-3.16,11.76-3.16h18.34c-7-8.94-17.89-14.7-30.1-14.7s-23.1,5.76-30.1,14.7h18.34c4.28,0,8.3,1.15,11.76,3.16Z"/><path class="cls-4" d="m105.23,123.93c12.21,0,23.1-5.76,30.1-14.7h-18.34c-4.28,0-8.3-1.15-11.76-3.16-3.46,2.01-7.48,3.16-11.76,3.16h-18.34c7,8.94,17.89,14.7,30.1,14.7Z"/><path class="cls-4" d="m114.04,74.34c1.88,3.37,2.95,7.26,2.95,11.38s-1.07,8.01-2.95,11.38c.94.24,1.93.37,2.95.37h24.6c1.2-3.71,1.85-7.66,1.85-11.76s-.65-8.05-1.85-11.76h-24.6c-1.02,0-2,.13-2.95.37Z"/><path class="cls-3" d="m105.23,106.08c-3.69-2.14-6.74-5.25-8.81-8.98-.94.24-1.93.37-2.95.37h-24.6c1.39,4.3,3.53,8.27,6.26,11.76h18.34c4.28,0,8.3-1.15,11.76-3.16Z"/><path class="cls-1" d="m105.23,65.36c3.69,2.14,6.74,5.25,8.81,8.98.94-.24,1.93-.37,2.95-.37h24.6c-1.39-4.3-3.53-8.27-6.26-11.76h-18.34c-4.28,0-8.3,1.15-11.76,3.16Z"/><path class="cls-3" d="m96.42,74.34c5.06,1.31,8.81,5.92,8.81,11.38s3.75,10.07,8.81,11.38c1.88-3.38,2.95-7.26,2.95-11.38s-1.07-8.01-2.95-11.38c-2.07-3.73-5.13-6.84-8.81-8.98-3.46-2.01-7.48-3.16-11.76-3.16h-18.34c-2.73,3.49-4.87,7.46-6.26,11.76h24.6c1.02,0,2,.13,2.95.37Z"/><path class="cls-1" d="m114.04,97.1c-5.06-1.31-8.81-5.92-8.81-11.38s-3.75-10.07-8.81-11.38c-1.87,3.38-2.95,7.26-2.95,11.38s1.07,8.01,2.95,11.38c2.07,3.73,5.13,6.84,8.81,8.98,3.46,2.01,7.48,3.16,11.76,3.16h18.34c2.73-3.49,4.87-7.46,6.26-11.76h-24.6c-1.02,0-2-.13-2.95-.37Z"/><path class="cls-5" d="m144.72,46.23c-10.55-10.55-24.57-16.36-39.49-16.36s-28.94,5.81-39.49,16.36c-10.55,10.55-16.36,24.57-16.36,39.49s5.81,28.94,16.36,39.49c10.55,10.55,24.57,16.36,39.49,16.36s28.94-5.81,39.49-16.36c10.55-10.55,16.36-24.57,16.36-39.49s-5.81-28.94-16.36-39.49Zm-75.85,51.25c-1.2-3.71-1.85-7.66-1.85-11.76s.65-8.05,1.85-11.76c1.39-4.3,3.53-8.27,6.26-11.76,7-8.94,17.89-14.7,30.1-14.7s23.1,5.76,30.1,14.7c2.73,3.49,4.87,7.46,6.26,11.76,1.2,3.71,1.85,7.66,1.85,11.76s-.65,8.05-1.85,11.76c-1.39,4.3-3.53,8.27-6.26,11.76-7,8.94-17.89,14.7-30.1,14.7s-23.1-5.76-30.1-14.7c-2.73-3.49-4.87-7.46-6.26-11.76Zm52.74-60.41l3.18.8-.78,1-2.18-.55c-1.03-.26-1.7-.01-2.67,1.22l-1.57,2.01c-.78.99-.79,1.65.32,1.92l2.01.5-.77,1-2.94-.74c-2.86-.72-2.76-2.04-1.37-3.82l1.04-1.31c1.39-1.79,3.03-2.71,5.72-2.04Zm-10.12-2.24l3.65.2-.58,1.13-2.68-.15c-.72-.04-1.52.21-1.95,1.06-.44.85-.35,1.17.67,1.23,2.87.16,2.71,1.23,2.18,2.26l-.14.27c-.93,1.81-2.5,2.2-4.96,2.07l-3.67-.2.57-1.13,2.77.15c1.08.06,1.78-.22,2.3-1.22.46-.92.33-1.19-.53-1.24-2.92-.16-2.95-1.07-2.3-2.32l.09-.18c.81-1.56,2.32-2.06,4.6-1.94Zm-6.31-.53l-2.82,8.6-3.05.31,2.82-8.6,3.05-.31Zm-10.38,1.16c2.97-.87,3.91.21,3.61,2.46l-.23,1.66c-.3,2.24-1.8,4.03-4.78,4.9l-4.47,1.3,1.22-8.97,4.66-1.36Zm-29.95,81.7l-1.77-2.46c-1.72-2.39-.8-3.34,1.41-3.8l1.64-.33c2.22-.47,4.07-.12,5.69,2.13l1.92,2.66-1.24.26-1.31-1.82c-.62-.86-1.29-1.1-2.83-.79l-2.49.52c-1.23.25-1.67.75-1,1.68l1.21,1.68-1.23.27Zm4.44,5.12c-2.08-1.86-1.52-3.11.52-4.04l1.69-.75c2.07-.94,4.1-.84,6.18,1.02l1.21,1.08c2.09,1.87,1.55,3.1-.52,4.04l-1.69.75c-2.04.93-4.08.86-6.18-1.02l-1.21-1.08Zm12.16,8.72l4.99-3.97c1.02-.81.68-1.09.17-1.36l-1.49-.78-6.09,4.84-2.71-1.41,7.08-5.63,5.45,2.84c1.8.94,1.78,1.75-.06,3.21l-4.61,3.67-2.71-1.41Zm12,4.49l3.84-5.09c.78-1.04.39-1.23-.18-1.36l-1.64-.38-4.68,6.21-2.98-.69,5.45-7.22,5.99,1.38c1.98.46,2.16,1.25.75,3.13l-3.55,4.71-2.98-.69Zm13.88,1.36h-7.04s3.68-8.27,3.68-8.27h7.05s-.52,1.16-.52,1.16h-3.99s-1.08,2.42-1.08,2.42h3.46s-.48,1.08-.48,1.08h-3.46s-1.1,2.45-1.1,2.45h3.98s-.5,1.16-.5,1.16Zm9.72-1.34l-2.97.58c-2.89.57-3.37-.67-2.87-2.87l.38-1.63c.5-2.21,1.59-3.75,4.31-4.28l3.22-.63-.28,1.24-2.2.43c-1.05.21-1.54.71-1.9,2.24l-.56,2.48c-.29,1.22-.02,1.83,1.11,1.6l2.04-.4-.27,1.23Zm4.54-1.24l.25-7.78-2.16.88.04-1.27,7.13-2.91-.04,1.27-2.13.87-.25,7.78-2.85,1.16Zm7.58-3.26l-1.17-8.97,2.61-1.6,1.17,8.97-2.61,1.6Zm9.82-6.8l-1.2,1.09c-2.06,1.87-3.26,1.19-3.96-.94l-.57-1.76c-.72-2.15-.41-4.17,1.65-6.04l1.2-1.09c2.08-1.89,3.25-1.21,3.96.94l.57,1.76c.71,2.13.42,4.15-1.66,6.04Zm8.75-10.09l-3.42-5.38c-.7-1.1-1.01-.8-1.34-.31l-.93,1.41,4.18,6.56-1.69,2.55-4.86-7.63,3.39-5.12c1.12-1.69,1.93-1.58,3.19.39l3.17,4.97-1.69,2.55Z"/><path class="cls-5" d="m138.44,120.55l-.71-2.16c-.56-1.69-1.09-1.81-1.83-1.14-.69.62-.98,1.29-.41,3.03l.74,2.24c.47,1.44,1.04,1.72,1.76,1.07.74-.67.93-1.59.45-3.04Z"/><path class="cls-5" d="m92.02,43.67l1.27-.37c1.19-.35,1.69-1.34,1.9-2.9l.21-1.54c.21-1.58-.03-2.37-1.22-2.02l-1.27.37-.89,6.46Z"/><path class="cls-5" d="m74.09,122.42l2.07-.93c1.62-.73,1.69-1.27.95-1.94-.69-.62-1.39-.84-3.06-.09l-2.15.97c-1.39.62-1.6,1.21-.88,1.86.74.66,1.67.76,3.07.13Z"/><path class="cls-1" d="m65.87,113.53l2.49-.52c1.54-.32,2.2-.08,2.83.79l1.31,1.82,1.24-.26-1.92-2.66c-1.62-2.25-3.47-2.6-5.69-2.13l-1.64.33c-2.21.46-3.14,1.41-1.41,3.8l1.77,2.46,1.23-.27-1.21-1.68c-.67-.93-.24-1.43,1-1.68Z"/><path class="cls-1" d="m76.68,124.37l1.69-.75c2.07-.94,2.61-2.17.52-4.04l-1.21-1.08c-2.08-1.86-4.11-1.95-6.18-1.02l-1.69.75c-2.04.93-2.6,2.18-.52,4.04l1.21,1.08c2.09,1.87,4.14,1.94,6.18,1.02Zm-4.78-3.94l2.15-.97c1.67-.75,2.37-.53,3.06.09.74.66.68,1.2-.95,1.94l-2.07.93c-1.39.63-2.32.54-3.07-.13-.73-.65-.51-1.24.88-1.86Z"/><path class="cls-1" d="m88.78,128.74c1.83-1.46,1.86-2.28.06-3.21l-5.45-2.84-7.08,5.63,2.71,1.41,6.09-4.84,1.49.78c.52.27.85.55-.17,1.36l-4.99,3.97,2.71,1.41,4.61-3.67Z"/><path class="cls-1" d="m99.98,131.47c1.41-1.87,1.23-2.67-.75-3.13l-5.99-1.38-5.45,7.22,2.98.69,4.68-6.21,1.64.38c.57.13.96.32.18,1.36l-3.84,5.09,2.98.69,3.55-4.71Z"/><polygon class="cls-1" points="104.96 133.24 108.42 133.25 108.9 132.17 105.44 132.17 106.52 129.75 110.51 129.75 111.03 128.59 103.98 128.59 100.29 136.86 107.33 136.86 107.84 135.7 103.86 135.7 104.96 133.24"/><path class="cls-1" d="m114.18,133.08l.56-2.48c.35-1.53.85-2.04,1.9-2.24l2.2-.43.28-1.24-3.22.63c-2.72.53-3.81,2.07-4.31,4.28l-.38,1.63c-.5,2.2-.03,3.44,2.87,2.87l2.97-.58.27-1.23-2.04.4c-1.12.22-1.4-.38-1.11-1.6Z"/><polygon class="cls-1" points="124.69 125.35 126.83 124.48 126.87 123.21 119.73 126.12 119.69 127.38 121.85 126.51 121.6 134.28 124.44 133.12 124.69 125.35"/><polygon class="cls-1" points="130.62 120.45 128.01 122.05 129.18 131.02 131.79 129.42 130.62 120.45"/><path class="cls-1" d="m140.65,118.18l-.57-1.76c-.72-2.15-1.88-2.83-3.96-.94l-1.2,1.09c-2.06,1.87-2.37,3.89-1.65,6.04l.57,1.76c.71,2.13,1.9,2.81,3.96.94l1.2-1.09c2.08-1.89,2.36-3.91,1.66-6.04Zm-2.66,5.41c-.72.65-1.28.38-1.76-1.07l-.74-2.24c-.57-1.74-.28-2.41.41-3.03.74-.67,1.27-.55,1.83,1.14l.71,2.16c.48,1.45.29,2.37-.45,3.04Z"/><path class="cls-1" d="m146.27,106.61c-1.26-1.98-2.07-2.09-3.19-.39l-3.39,5.12,4.86,7.63,1.69-2.55-4.18-6.56.93-1.41c.32-.49.63-.79,1.34.31l3.42,5.38,1.69-2.55-3.17-4.97Z"/><path class="cls-1" d="m88.92,45.78l4.47-1.3c2.98-.87,4.48-2.67,4.78-4.9l.23-1.66c.3-2.25-.64-3.33-3.61-2.46l-4.66,1.36-1.22,8.97Zm5.25-8.93c1.19-.35,1.43.44,1.22,2.02l-.21,1.54c-.22,1.56-.71,2.55-1.9,2.9l-1.27.37.89-6.46,1.27-.37Z"/><polygon class="cls-1" points="99.31 43.2 102.36 42.89 105.18 34.29 102.13 34.6 99.31 43.2"/><path class="cls-1" d="m106.89,36.76l-.09.18c-.64,1.25-.61,2.16,2.3,2.32.86.05.99.32.53,1.24-.51.99-1.22,1.28-2.3,1.22l-2.77-.15-.57,1.13,3.67.2c2.46.14,4.03-.26,4.96-2.07l.14-.27c.53-1.03.69-2.1-2.18-2.26-1.02-.06-1.1-.38-.67-1.23.44-.85,1.23-1.1,1.95-1.06l2.68.15.58-1.13-3.65-.2c-2.28-.13-3.79.37-4.6,1.94Z"/><path class="cls-1" d="m115.88,39.11l-1.04,1.31c-1.39,1.78-1.49,3.1,1.37,3.82l2.94.74.77-1-2.01-.5c-1.11-.28-1.1-.94-.32-1.92l1.57-2.01c.97-1.23,1.64-1.48,2.67-1.22l2.18.55.78-1-3.18-.8c-2.69-.67-4.33.25-5.72,2.04Z"/></g></svg>