<?xml version="1.0" encoding="UTF-8"?><svg id="Layer_2" xmlns="http://www.w3.org/2000/svg" width="249.03" height="285.36" viewBox="0 0 249.03 285.36"><defs><style>.cls-1{stroke:#8a5d3b;stroke-width:14px;}.cls-1,.cls-2{fill:none;}.cls-1,.cls-2,.cls-3,.cls-4{stroke-miterlimit:10;}.cls-2{stroke:#fff100;stroke-linecap:round;stroke-width:6px;}.cls-5{fill:#006838;}.cls-6{fill:#009345;}.cls-7{fill:#37b34a;}.cls-3{fill:red;stroke:#2b388f;stroke-width:.5px;}.cls-4{fill:#8a5d3b;stroke:#754c28;stroke-width:16px;}</style></defs><g id="Layer_1-2"><path class="cls-5" d="m143.73,158.46c0,8.79-1.58,17.21-4.47,24.99-6.8,18.36-20.9,33.18-38.78,40.94-8.77,3.82-18.44,5.93-28.61,5.93-3.03,0-6.02-.19-8.95-.56-12.51-1.54-24.02-6.31-33.68-13.45C11.5,203.23,0,182.19,0,158.46c0-26.05,13.86-48.87,34.62-61.48,10.86-6.59,23.61-10.39,37.25-10.39s26.89,3.95,37.89,10.79c11.88,7.39,21.44,18.14,27.35,30.93,2.71,5.82,4.64,12.07,5.69,18.61.17.99.31,1.98.42,2.99.34,2.8.51,5.66.51,8.55Z"/><path class="cls-5" d="m172.04,204.77c0,23.63-11.4,44.59-29,57.69-11.96,8.91-26.79,14.18-42.86,14.18-13.64,0-26.39-3.8-37.26-10.4-17.62-10.7-30.27-28.77-33.68-49.93-.61-3.76-.93-7.61-.93-11.54,0-22.79,10.61-43.1,27.16-56.26,12.27-9.77,27.81-15.6,44.71-15.6,1.99,0,3.97.08,5.92.24,5.81.47,11.43,1.64,16.76,3.41,7.23,2.4,13.94,5.92,19.94,10.36.68.49,1.36,1.01,2.02,1.54,13.92,11.04,23.65,27.15,26.41,45.54.54,3.51.81,7.11.81,10.77Z"/><path class="cls-5" d="m165.72,100.45c0,7.73-1.34,15.15-3.79,22.03-3.57,10-9.49,18.89-17.11,25.98-.52.49-1.06.98-1.6,1.45-7.14,6.22-15.64,10.93-24.99,13.61-5.75,1.65-11.83,2.53-18.11,2.53-.17,0-.34,0-.51-.01-17.04-.12-32.54-6.75-44.14-17.53-12.89-11.98-20.95-29.08-20.95-48.06,0-1.16.03-2.32.1-3.47,1.79-34.61,30.43-62.13,65.5-62.13,19.26,0,36.58,8.3,48.59,21.52,10.57,11.64,17.01,27.11,17.01,44.08Z"/><path class="cls-5" d="m249.03,122.38c0,17.34-6.14,33.24-16.37,45.65-13.18,16.01-33.15,26.21-55.5,26.21-2,0-3.98-.08-5.93-.24-11.67-.95-22.55-4.69-31.97-10.55-8.29-5.15-15.45-11.95-21.03-19.93-3.23-4.61-5.93-9.61-8.01-14.93-1.92-4.91-3.32-10.08-4.12-15.44-.54-3.51-.81-7.11-.81-10.77,0-8.79,1.58-17.22,4.47-25,6.83-18.42,21-33.27,38.95-41.01,8.72-3.77,18.34-5.86,28.45-5.86,39.69,0,71.87,32.18,71.87,71.87Z"/><path class="cls-5" d="m237.59,194.24c0,39.7-32.18,71.87-71.87,71.87-7.93,0-15.55-1.28-22.68-3.65-18.89-6.28-34.3-20.18-42.56-38.07-4.25-9.17-6.62-19.38-6.62-30.15,0-10.01,2.05-19.55,5.75-28.2,2.7-6.34,6.29-12.21,10.61-17.45,3.71-4.5,7.95-8.55,12.64-12.03,4.39-3.27,9.17-6.05,14.25-8.25,7.67-3.34,16.03-5.38,24.82-5.83,1.26-.07,2.52-.1,3.79-.1,30.44,0,56.46,18.92,66.94,45.65,3.18,8.12,4.93,16.96,4.93,26.21Z"/><polygon class="cls-6" points="104.26 0 56.79 109.03 151.72 109.03 104.26 0"/><polygon class="cls-6" points="104.26 56.65 41.31 165.68 167.2 165.68 104.26 56.65"/><line class="cls-4" x1="104.26" y1="205.16" x2="104.26" y2="260.65"/><polygon class="cls-6" points="107.77 105.3 44.82 214.32 170.71 214.32 107.77 105.3"/><polygon class="cls-7" points="62.92 50.93 24.4 143.25 101.44 143.25 62.92 50.93"/><polygon class="cls-7" points="62.92 97.09 11.84 189.41 114 189.41 62.92 97.09"/><polygon class="cls-7" points="62.92 134.07 11.84 226.39 114 226.39 62.92 134.07"/><line class="cls-1" x1="62.92" y1="226.39" x2="62.92" y2="271.39"/><path class="cls-2" d="m227.25,136.14c0,45.3-18.29,82.02-40.84,82.02s-40.84-36.72-40.84-82.02h81.68Z"/><path class="cls-2" d="m213.89,136.14c0,45.3-12.3,82.02-27.47,82.02s-27.48-36.72-27.48-82.02h54.95Z"/><path class="cls-2" d="m198.2,136.14c0,45.3-5.27,82.02-11.78,82.02s-11.79-36.72-11.79-82.02h23.57Z"/><line class="cls-2" x1="186.41" y1="132.64" x2="186.42" y2="282.36"/><line class="cls-2" x1="228.41" y1="222.99" x2="144.41" y2="222.99"/><line class="cls-2" x1="231.36" y1="200.2" x2="141.46" y2="200.2"/><line class="cls-2" x1="144.41" y1="222.99" x2="141.46" y2="200.2"/><line class="cls-2" x1="228.41" y1="222.99" x2="231.21" y2="200.2"/><line class="cls-2" x1="156.61" y1="222.99" x2="154.09" y2="200.2"/><line class="cls-2" x1="215.21" y1="222.99" x2="217.73" y2="200.2"/><line class="cls-2" x1="172.29" y1="222.99" x2="170.73" y2="200.2"/><line class="cls-2" x1="200.03" y1="222.99" x2="201.59" y2="200.2"/><ellipse class="cls-3" cx="103.22" cy="166.78" rx="9.34" ry="26.58" transform="translate(-83.49 226.84) rotate(-76.08)"/></g></svg>