<?xml version="1.0" encoding="UTF-8"?><svg id="Layer_2" xmlns="http://www.w3.org/2000/svg" width="265" height="242" xmlns:xlink="http://www.w3.org/1999/xlink" viewBox="0 0 265 242"><defs><style>.cls-1{fill:url(#linear-gradient);}.cls-2{fill:#fff;}.cls-3{fill:#666;}.cls-4{fill:gray;}.cls-5{fill:#4d4d4d;}</style><linearGradient id="linear-gradient" x1="132.5" y1="-1553.95" x2="132.5" y2="-1715.95" gradientTransform="translate(0 -1530.95) scale(1 -1)" gradientUnits="userSpaceOnUse"><stop offset="0" stop-color="#f6f6f6"/><stop offset=".09" stop-color="#fff"/><stop offset="1" stop-color="#5b5657"/></linearGradient></defs><g id="Layer_1-2"><polygon class="cls-1" points="265 104 132.5 185 0 104 .45 104 132.72 23 265 104"/><ellipse class="cls-3" cx="183" cy="167" rx="29" ry="67"/><circle class="cls-4" cx="81" cy="69" r="29"/><circle class="cls-5" cx="132" cy="29" r="29"/><circle class="cls-3" cx="183" cy="69" r="29"/><ellipse class="cls-4" cx="81" cy="167" rx="29" ry="67"/><path class="cls-5" d="m132,62c16.02,0,35.25,38.26,35.25,75.26s-3.25,47.74-34.75,47.74c-37.16,0-34.32-14.8-34.32-51.8s17.8-71.2,33.82-71.2Z"/><path class="cls-2" d="m265,104v120.43c0,9.71-7.87,17.57-17.57,17.57H17.56c-9.7,0-17.56-7.86-17.56-17.57v-120.43l132.5,81,132.5-81Z"/></g></svg>