<?xml version="1.0" encoding="utf-8"?>
<!-- Generator: Adobe Illustrator 27.5.0, SVG Export Plug-In . SVG Version: 6.00 Build 0)  -->
<svg version="1.1" id="Layer_2_00000007394859986246146390000015319045612618070456_"
	 xmlns="http://www.w3.org/2000/svg" xmlns:xlink="http://www.w3.org/1999/xlink" x="0px" y="0px" viewBox="0 0 265 242"
	 style="enable-background:new 0 0 265 242;" xml:space="preserve">
<style type="text/css">
	.st0{fill:url(#SVGID_1_);}
	.st1{fill:#666666;}
	.st2{fill:#CCCCCC;}
	.st3{fill:#4D4D4D;}
	.st4{fill:#E0E0E0;}
</style>
<linearGradient id="SVGID_1_" gradientUnits="userSpaceOnUse" x1="132.5" y1="221" x2="132.5" y2="59" gradientTransform="matrix(1 0 0 -1 0 244)">
	<stop  offset="0" style="stop-color:#F6F6F6"/>
	<stop  offset="0" style="stop-color:#FFFFFF"/>
	<stop  offset="0.2614" style="stop-color:#C5C3C4"/>
	<stop  offset="0.5008" style="stop-color:#979495"/>
	<stop  offset="0.7113" style="stop-color:#767273"/>
	<stop  offset="0.8848" style="stop-color:#625D5E"/>
	<stop  offset="1" style="stop-color:#5B5657"/>
</linearGradient>
<polygon class="st0" points="265,104 132.5,185 0,104 0.4,104 132.7,23 "/>
<ellipse class="st1" cx="183" cy="167" rx="29" ry="67"/>
<circle class="st2" cx="81" cy="69" r="29"/>
<circle class="st3" cx="132" cy="29" r="29"/>
<circle class="st1" cx="183" cy="69" r="29"/>
<ellipse class="st2" cx="81" cy="167" rx="29" ry="67"/>
<path class="st3" d="M132,62c16,0,25.1,33,35.3,75.3c8.4,35.1,12.3,47.7-34.8,47.7c-51.5,0-41.1-14.5-34.3-51.8
	C104.8,96.8,116,62,132,62z"/>
<path class="st4" d="M265,104v120.4c0,9.7-7.9,17.6-17.6,17.6H17.6C7.9,242,0,234.1,0,224.4V104l132.5,81L265,104z"/>
<path class="st3" d="M110.1,173"/>
</svg>
