<?xml version="1.0" encoding="UTF-8"?><svg id="Layer_1" xmlns="http://www.w3.org/2000/svg" viewBox="0 0 1105.97 1455.59"><defs><style>.cls-1{fill:#ec7105;stroke:#ec7105;stroke-miterlimit:10;}</style></defs><path class="cls-1" d="m688.36,850.83c5.09-.61,12.07-1.53,20.97-2.77,8.89-1.23,18.22-2.6,28-4.1,9.78-1.5,19.27-3.05,28.49-4.64,9.21-1.59,16.71-2.89,22.49-3.92-.2,4.52-.29,9.09-.28,13.74,0,4.65.28,9.18.81,13.6.5,4.11,1.26,8.19,2.3,12.22,1.04,4.04,2.15,7.91,3.34,11.62-22.37,1.1-44.59,2.66-66.66,4.68-22.08,2.03-44.02,4.35-65.83,6.98-22.18,2.68-44.32,5.67-66.42,8.98-22.1,3.31-44.15,7.09-66.13,11.35.29-6.77.35-13.18.17-19.25-.18-6.06-.67-13.14-1.45-21.22-.79-8.08-1.79-17.89-3-29.45-1.21-11.55-2.9-26.33-5.07-44.34l-6.23-51.65c-3.01-24.95-5.59-45.55-7.73-61.81-2.15-16.24-4.15-30.51-5.99-42.79-1.85-12.28-3.77-23.58-5.75-33.92-1.99-10.34-4.3-21.91-6.96-34.74,19.05-1.02,38.09-2.27,57.09-3.76,19-1.49,37.95-3.38,56.86-5.66,10.54-1.27,22.62-2.81,36.24-4.61,13.62-1.8,27.41-3.62,41.39-5.48,13.97-1.84,27.47-3.87,40.49-6.09,13.01-2.21,24.37-4.38,34.07-6.51-.2,4.52-.33,8.78-.39,12.79-.07,4.02.16,8.24.7,12.66.53,4.43,1.34,8.81,2.42,13.17,1.08,4.36,2.24,8.71,3.51,13.04-13.9,1.04-27.62,1.97-41.16,2.8-13.55.84-27.05,2.06-40.5,3.69l-57.26,6.91,11.21,92.88c4.36-.53,10.9-1.39,19.61-2.61,8.71-1.21,18.95-2.68,30.73-4.43,11.77-1.74,24.72-3.78,38.82-6.13,14.1-2.34,28.73-4.91,43.89-7.7-.2,4.52-.33,8.78-.39,12.79-.07,4.02.16,8.24.7,12.66.99,8.22,2.92,16.64,5.81,25.26-10.98.69-21.51,1.39-31.56,2.13-10.06.73-20.29,1.49-30.71,2.26s-21.46,1.79-33.11,3.03c-11.66,1.25-24.57,2.72-38.75,4.44l13.09,108.51,38.18-4.61Z"/><path class="cls-1" d="m645.71,364.02c-7.83,27.85-13.56,53.66-17.18,77.45-13.17-5.81-27.58-11.48-43.23-17.03-15.66-5.54-31.29-10.73-46.89-15.57-15.61-4.84-31.12-9.12-46.53-12.86-15.42-3.74-29.37-7.02-41.85-9.85,10.65-25.76,20.55-51.24,29.7-76.43,9.13-25.19,17.82-51.04,26.04-77.56,1.96-6.31,4.25-14.16,6.9-23.55,2.63-9.39,5.48-18.97,8.51-28.76,3.13-10.1,6.01-19.84,8.66-29.23,2.63-9.38,4.94-17.23,6.9-23.55,3.42-11.05,6.79-23.67,10.13-37.86,3.32-14.19,6.06-28.22,8.23-42.08,12.38,4.88,26.72,10.36,43.01,16.44,16.28,6.08,31.25,11.24,44.91,15.47,15.11,4.68,30.85,9.13,47.18,13.32,16.34,4.2,31.03,7.63,44.11,10.3-9.49,21.97-18.38,43.79-26.69,65.42-8.31,21.65-15.99,43.83-23.03,66.56l-14.67,47.35c-8.32,26.83-16.39,54.17-24.21,82.02Z"/><path class="cls-1" d="m181.11,733.92c4.28,8.91,10.2,16.98,17.74,24.19,7.54,7.22,16.49,13.55,26.87,18.99,10.36,5.44,21.59,9.57,33.68,12.39,7.5,1.75,15.16,2.79,23,3.12,7.83.33,15.12-.32,21.87-1.95,6.74-1.62,12.58-4.49,17.5-8.61,4.92-4.12,8.17-9.57,9.75-16.36,1.5-6.43,1.17-12.52-.99-18.3-2.17-5.78-6.83-12.13-13.99-19.08-7.17-6.94-16.97-14.79-29.43-23.54-12.46-8.74-28.22-19.3-47.3-31.67-25.58-16.51-44.92-36.19-58.04-59.02-13.12-22.83-16.5-47.81-10.16-74.94,5.01-21.42,13.72-38.95,26.14-52.62,12.42-13.66,27.34-23.91,44.75-30.76,17.42-6.84,36.83-10.5,58.25-10.95,21.41-.45,43.57,2,66.49,7.35,22.5,5.26,44.28,12.61,65.36,22.05,21.07,9.44,41.45,20.05,61.11,31.79-9.09,10.68-17.49,22.65-25.2,35.9-7.71,13.26-13.65,25.99-17.82,38.19l-25-5.84c.42-16.84-5.05-32.43-16.42-46.76-11.38-14.32-28.3-24.12-50.8-29.38-6.67-1.56-14.02-2.52-22.06-2.9-8.05-.37-15.65.21-22.81,1.73-7.17,1.53-13.4,4.21-18.69,8.06-5.29,3.84-8.77,9.34-10.44,16.48-1.59,6.79-.86,13.07,2.18,18.86,3.03,5.79,7.63,11.48,13.81,17.06,6.16,5.59,13.83,11.33,22.99,17.23,9.16,5.91,18.87,12.32,29.12,19.23l43.86,29.45c25.48,16.88,42.23,35.48,50.23,55.79,7.99,20.32,8.99,43.32,2.98,69.03-5.26,22.49-14.18,40.93-26.77,55.3-12.59,14.38-27.84,25.12-45.76,32.22-17.92,7.11-38.06,10.59-60.43,10.44-22.37-.15-45.85-3.09-70.43-8.84-13.75-3.21-26.14-6.59-37.18-10.1-11.04-3.52-21.7-7.24-31.99-11.15-10.29-3.9-20.52-8.55-30.68-13.95-10.17-5.39-21.04-11.5-32.62-18.35,3.41-7.11,6.58-13.61,9.51-19.52,2.91-5.9,5.77-12.01,8.57-18.33,2.79-6.31,5.58-13.09,8.38-20.35,2.79-7.25,5.77-15.78,8.94-25.58l25.62,5.99c-.09,9.77,2.01,19.11,6.3,28.01Z"/><path class="cls-1" d="m203.61,64.86c1.78,3.08,6.99,12.18,15.64,27.29,8.64,15.11,19.26,32.95,31.86,53.52,12.59,20.57,26.38,42.23,41.36,64.98,14.97,22.76,29.7,43.48,44.19,62.17,7.19-18.34,14.22-37.15,21.06-56.44,6.85-19.28,14.18-41.27,22.03-65.95,5.76-18.5,11.65-36.92,17.67-55.29,6.01-18.36,11.19-36.87,15.53-55.53,8.54.62,16.79.78,24.75.48,7.96-.3,15.88-.93,23.76-1.88,10.19-1.23,19.07-2.8,26.6-4.69,7.53-1.9,14.72-3.75,21.56-5.57-11.21,24.1-22.53,48.21-33.96,72.34-11.44,24.13-22.28,48.35-32.51,72.66-8.7,21.49-16.87,41.52-24.51,60.07-7.64,18.56-15.1,36.68-22.37,54.37-7.28,17.69-14.51,35.71-21.7,54.05-7.2,18.35-14.69,38.2-22.45,59.57-17.04-.91-33.91-.36-50.61,1.66-7.89.95-15.85,2.24-23.88,3.87-8.04,1.63-15.9,3.74-23.58,6.31-4.19-7.41-10.33-17.37-18.43-29.92-8.11-12.54-17.44-26.58-28.01-42.11-10.58-15.54-21.99-32.12-34.23-49.77-12.25-17.64-24.61-35.27-37.08-52.89-12.48-17.61-24.78-34.75-36.9-51.42-12.13-16.66-23.36-31.79-33.7-45.38-10.35-13.58-19.27-25.2-26.78-34.84-7.51-9.64-13.14-16.22-16.85-19.72,16.38-.66,32.63-1.54,48.72-2.66,16.1-1.12,32.25-2.65,48.49-4.61,28.74-3.47,56.85-8.34,84.32-14.63Z"/><path class="cls-1" d="m832.33,1010.68c4.59,7.96,10.6,14.98,18,21.04,7.4,6.07,16,11.16,25.82,15.28,9.81,4.13,20.29,6.94,31.44,8.44,6.92.93,13.93,1.19,21.04.75,7.1-.43,13.64-1.74,19.61-3.9,5.96-2.16,11-5.41,15.11-9.75,4.11-4.33,6.6-9.76,7.48-16.29.83-6.18.04-11.87-2.39-17.1-2.43-5.22-7.16-10.75-14.19-16.6-7.05-5.84-16.54-12.28-28.51-19.32-11.97-7.03-27.07-15.45-45.32-25.26-24.46-13.08-43.54-29.74-57.24-49.94-13.71-20.2-18.8-43.34-15.28-69.43,2.78-20.59,9.23-37.89,19.34-51.91,10.11-14.01,22.76-25.05,37.94-33.14,15.18-8.08,32.42-13.35,51.75-15.81,19.31-2.45,39.54-2.26,60.68.6,20.76,2.8,41.04,7.64,60.86,14.51,19.81,6.87,39.08,14.9,57.81,24.06-7.34,10.89-13.96,22.93-19.85,36.11-5.89,13.19-10.22,25.71-13,37.56l-23.06-3.12c-.99-15.86-7.2-29.98-18.64-42.36-11.45-12.38-27.54-19.97-48.29-22.78-6.15-.83-12.88-1.04-20.17-.63-7.3.41-14.12,1.68-20.47,3.79-6.36,2.11-11.77,5.22-16.23,9.34-4.47,4.11-7.17,9.61-8.1,16.47-.88,6.52.28,12.36,3.5,17.51,3.21,5.15,7.83,10.06,13.86,14.72,6.02,4.66,13.42,9.33,22.18,14.01,8.76,4.68,18.05,9.78,27.87,15.3l42.03,23.5c24.4,13.44,41.04,29.32,49.92,47.64,8.87,18.33,11.64,39.84,8.3,64.55-2.92,21.62-9.49,39.79-19.69,54.48-10.21,14.7-23.12,26.23-38.73,34.61-15.62,8.37-33.53,13.55-53.76,15.54s-41.69,1.44-64.36-1.62c-12.68-1.71-24.16-3.71-34.42-5.96-10.26-2.26-20.2-4.74-29.82-7.44-9.62-2.69-19.24-6.09-28.86-10.19-9.63-4.09-19.95-8.81-30.97-14.14,2.51-7,4.84-13.41,7-19.24,2.15-5.82,4.24-11.83,6.25-18.03,2.01-6.19,3.98-12.83,5.92-19.91,1.93-7.08,3.93-15.37,6-24.88l23.64,3.19c.71,9.19,3.37,17.75,7.97,25.72Z"/></svg>