<?xml version="1.0" encoding="UTF-8"?><svg id="Layer_1" xmlns="http://www.w3.org/2000/svg" width="5.5cm" height="4.5cm" viewBox="0 0 155.91 127.56"><defs><style>.cls-1{fill:#a31d35;}.cls-2{fill:#981b34;}.cls-3,.cls-4,.cls-5,.cls-6,.cls-7,.cls-8,.cls-9,.cls-10,.cls-11,.cls-12{stroke:#231f20;stroke-miterlimit:10;}.cls-3,.cls-4,.cls-5,.cls-12{stroke-width:.5px;}.cls-3,.cls-7{fill:#991b34;}.cls-4{fill:#991a26;}.cls-5{fill:#961b34;}.cls-6{fill:#991b33;}.cls-8{fill:#891934;}.cls-9{fill:#891834;}.cls-10{fill:#701833;}.cls-11{fill:#603913;}.cls-12{fill:none;}</style></defs><path class="cls-10" d="m119.97,73.09c-2.76,15.24-5.85,6.69-42.91,9.25-37.64,2.6-44.68,0-47.11-8.76-9.08-32.84,6.3-16.04,49.89-14.31,46.67,1.86,46.71-22.55,40.13,13.81Z"/><path class="cls-7" d="m129.88,46.55c3.39-1.27,30.08-56.36-5.51-42.8S20.56,6.3,20.56,6.3c-10.59,5.51,2.12,34.75,2.12,34.75l3.59,13.34,100.67-.9,2.95-6.94Z"/><path class="cls-3" d="m33.53,53.51c2.28,2.2,59.39,12.11,88.08-.98"/><path class="cls-6" d="m122.85,108.88H33.83c-1.72,0-3.12-1.4-3.12-3.12l-.76-34.63c2.73,1.65,17.01,4.73,32.1,6.08h32.75c20.81-2.2,28.96-3.08,28.96-1.35l2.22,29.9c0,1.72-1.4,3.12-3.12,3.12Z"/><path class="cls-8" d="m6.12,74.44c9.62,17.81-5.08,36.65,15.05,36.65s15.05-16.41,15.05-36.65-6.74-36.65-15.05-36.65-30.73,7.63-15.05,36.65Z"/><path class="cls-9" d="m118.62,74.44c0,20.24-1.91,36.65,15.05,36.65s5.12-19.02,15.05-36.65c12.05-21.4-2.78-36.65-15.05-36.65-8.31,0-15.05,16.41-15.05,36.65Z"/><path class="cls-11" d="m28.15,116.64c-1.08,4.62-2.03,9.48,2.09,9.3,3.59-.15,4.92-2.8,6-7.41s3.98-8.75-2.09-9.3-4.92,2.8-6,7.41Z"/><path class="cls-11" d="m120.13,118.76c1.37,4.54,2.89,7.02,6.46,7.02,3.85,0,2.87-4.88,1.49-9.42s1.21-7.03-6.46-7.02c-5.66.01-2.87,4.88-1.49,9.42Z"/><path class="cls-4" d="m41.55,21.56s2.41,2.65,2.41,3.97,1.08-2.53,3.01-3.97"/><path class="cls-3" d="m66.58,11.69s2.17-7.22,3.97-7.7c0,0-.81,1.42-.81,2.69,0,.42.09.83.33,1.16.96,1.32,1.93-4.21,3.97-4.93,0,0-1.44,7.7,0,9.87"/><path class="cls-12" d="m94.8,65.41s0,1.4,2.04,2.64.41-2.85,1.84-3.87"/><path class="cls-4" d="m65.56,73.59s1.02,1.84,1.02,2.86"/><path class="cls-4" d="m68.21,71.13s3.17,1.64,2.09,2.45"/><path class="cls-4" d="m106.66,93.1s-1.84,1.14-1.64,2.16"/><path class="cls-4" d="m69.37,95.26l-.51.65-.65-1.08s-2.41,2.45-1.64,3.52"/><path class="cls-2" d="m2.95,49.07c.3-.39.75-.62,1.24-.65,2.47-.16,8.33-.64,12.16,2.49,6.03,4.93,20.28,37.43,7.94,50.36,0,0-12.36,7.18-13.85.7-.98-4.25.86-14.83-1.81-23.03-3.13-9.6-6.22-10.7-7.3-21.12-.7-6.73,1.15-8.14,1.61-8.75Z"/><path class="cls-4" d="m10.53,52.92s-2.87.65-2.05,1.47,2.05,1.46,2.05,1.46"/><polyline class="cls-5" points="10.53 82.26 4.12 78.57 6.3 82.26 4.12 83.17 6.91 83.67 6.61 84.9 9.83 84.9"/><path class="cls-12" d="m8.48,46.55s-4.92,1.07-4.3,3.33h3.07"/><path class="cls-2" d="m150.76,50.26c-.3-.39-.75-.62-1.24-.65-2.47-.16-7.66-.43-11.3,2.91-5.91,5.44-21.14,37.01-8.8,49.94,0,0,12,7,13.48.53.98-4.25-.24-14.61,2.69-22.73,3.44-9.54,7.15-10.96,7.09-21.6-.04-6.77-1.46-7.78-1.92-8.39Z"/><path class="cls-4" d="m132.3,74.44s4.24.7,3.57,2.84"/><path class="cls-4" d="m132.3,77.28s.42,4.51,1.82,4.45"/><path class="cls-4" d="m140.99,66.23v3.54"/><path class="cls-3" d="m148.32,49.88s2.81-1.65,4.87-1.66l-.66,1.66h2.28s-4.95,2.93-4.28,3.74"/><path class="cls-3" d="m139.06,105.48s2.74,1.77,3.61,3.86c.42,1.01-3.61-1.29-3.61-1.29"/><path class="cls-1" d="m133.02,26.44c1.72.16,3.69-1.1,4.35-2.69,3.31-8.05-.12-20.9-4.15-18-7.66,5.53-31.52,10.34-46.6,8.7-1.94-.21-3.45,1.65-2.88,3.52.87,2.87,4.47,17.46,2.03,28.58-.93,4.26,19.23,3.33,25.38-2.58,7.32-7.02,1.92-10.31,12.15-13.26,5.58-1.61,5.63-4.66,9.71-4.28Z"/><path class="cls-4" d="m134.13,7.84s1.82,3.28,0,4.93"/></svg>