<?xml version="1.0" encoding="UTF-8"?><svg id="Layer_1" xmlns="http://www.w3.org/2000/svg" viewBox="0 0 1920 1080"><defs><style>.cls-1{opacity:.67;}.cls-1,.cls-2,.cls-3,.cls-4,.cls-5,.cls-6,.cls-7,.cls-8,.cls-9,.cls-10,.cls-11,.cls-12,.cls-13,.cls-14,.cls-15{stroke-miterlimit:10;}.cls-1,.cls-2,.cls-3,.cls-7,.cls-8,.cls-9,.cls-10,.cls-11,.cls-12,.cls-13,.cls-14,.cls-15{stroke-width:3px;}.cls-1,.cls-3,.cls-8,.cls-11{stroke:#470027;}.cls-1,.cls-11{fill:#a4304f;}.cls-2{stroke:#9f5559;}.cls-2,.cls-3{fill:none;}.cls-4{fill:#f17aa9;stroke:#000;}.cls-4,.cls-5,.cls-6{stroke-width:7px;}.cls-5{fill:#ea1f27;stroke:#221f1f;}.cls-6{fill:#f2f2f2;stroke:gray;}.cls-7{fill:#741833;stroke:#4f062f;}.cls-8,.cls-9{fill:#a7595e;}.cls-9{stroke:#a4525a;}.cls-10{fill:#833f53;}.cls-10,.cls-12,.cls-13{stroke:#4c4b4c;}.cls-12{fill:#a4566a;}.cls-13{fill:#601834;}.cls-14{stroke:#676767;}.cls-14,.cls-15{fill:#676767;}.cls-15{stroke:#666667;}</style></defs><polygon class="cls-1" points="3.41 1079.66 1919.01 1079.66 1920 675.59 690.13 483.93 3.13 604.76 3.41 1079.66"/><polygon class="cls-13" points="1918.82 123.74 692.2 225.37 1.04 88.79 1.91 0 1919.45 1.94 1918.82 123.74"/><polygon class="cls-11" points="692.69 225.69 689.04 499.34 1918.92 691 1917.62 66.46 692.69 225.69"/><polygon class="cls-8" points="1180.11 308.53 1060.25 310.21 1060.25 218.2 1180.11 208 1180.11 308.53"/><path class="cls-8" d="m1090.93,248.59s-13.5,6.24-8.79,20.67c4.94,15.12,19.49,12.64,26.87,8.29,16.97-10,6.48-28.96,6.48-28.96"/><path class="cls-8" d="m1125.03,249.54s-9.51,14.6-3.05,22.21c3.25,3.83,20.04,10.84,26.17,7.07,23.8-14.65,2.45-29.49,2.45-29.49"/><circle class="cls-8" cx="1095.38" cy="265.72" r="4.55"/><circle class="cls-8" cx="1139.57" cy="266.8" r="4.01"/><ellipse class="cls-8" cx="1092.99" cy="263.51" rx="1.9" ry="2.54" transform="translate(59.77 706.81) rotate(-36.78)"/><ellipse class="cls-8" cx="1138.84" cy="264.62" rx="1.77" ry="2.4" transform="translate(-29.98 235.66) rotate(-11.66)"/><polygon class="cls-8" points="1888.58 629.65 1710.11 611.28 1694.08 139.84 1879.01 123.2 1888.58 629.65"/><polygon class="cls-8" points="1668.36 617.42 1463.82 587.51 1463.82 411.06 1668.36 412.88 1668.36 617.42"/><polygon class="cls-8" points="1644.46 314.19 1527.39 316.25 1520.24 152.29 1644.46 139.84 1644.46 314.19"/><polygon class="cls-8" points="1385.37 557.29 1265.5 541.52 1267.34 407.28 1385.37 412.9 1385.37 557.29"/><polygon class="cls-8" points="1439.53 330.23 1234.98 330.23 1234.98 187.76 1439.53 166.07 1439.53 330.23"/><polygon class="cls-8" points="1191.56 529.74 1093.37 514.6 1087.6 355.71 1191.56 355.39 1191.56 529.74"/><polygon class="cls-8" points="1015.38 493.02 877.4 475.71 877.4 256.29 1015.38 235.59 1015.38 493.02"/><polygon class="cls-7" points="3.13 51.89 3.13 604.76 690.49 498.48 693.41 225.28 3.13 51.89"/><polygon class="cls-8" points="426.11 331.34 512.5 332.76 512.5 218.78 426.11 204.14 426.11 331.34"/><polygon class="cls-8" points="227.41 263.68 387.45 268.45 387.45 199.42 227.41 153.44 227.41 263.68"/><polygon class="cls-8" points="393.51 507.75 505.24 495.61 508.46 369.71 393.51 369.63 393.51 507.75"/><polygon class="cls-8" points="187.54 538.04 348.27 514.72 348.27 310.21 187.54 310.86 187.54 538.04"/><polygon class="cls-8" points="48.82 559.51 146.91 544.11 152.34 291.16 48.82 291.33 48.82 559.51"/><polygon class="cls-8" points="44.11 237.69 187.54 238.91 185.67 150.5 44.11 128.57 44.11 237.69"/><path class="cls-8" d="m195.15,361.88s48.96,85.52,26.8,163.06l86.8-12.96s-12.01-95.05,25.86-149.56"/><path class="cls-8" d="m214.55,359.89s-24.87,16.61-16.18,54.98c9.1,40.21,35.9,33.62,49.5,22.05,31.26-26.61,11.94-77.04,11.94-77.04"/><path class="cls-8" d="m277.35,362.42s-17.51,38.83-5.61,59.09c5.98,10.18,36.91,28.85,48.2,18.81,43.84-38.96,4.52-78.45,4.52-78.45"/><ellipse class="cls-8" cx="222.74" cy="405.48" rx="8.38" ry="12.1"/><ellipse class="cls-8" cx="304.13" cy="408.34" rx="7.38" ry="10.66"/><ellipse class="cls-8" cx="218.33" cy="399.59" rx="3.73" ry="6.36" transform="translate(-97.32 71.41) rotate(-15.23)"/><ellipse class="cls-8" cx="302.79" cy="402.54" rx="3.27" ry="6.35" transform="translate(-34.05 28.03) rotate(-5.02)"/><path class="cls-8" d="m1473.16,449.31s61.26,58.19,34.03,124.13l101.55,19.36s-10.79-96.67,35.72-143.03"/><path class="cls-8" d="m1496.98,447.62s-30.54,14.13-19.88,46.76c11.18,34.2,44.1,28.6,60.8,18.75,38.4-22.63,14.67-65.52,14.67-65.52"/><path class="cls-8" d="m1574.12,449.77s-21.51,33.03-6.89,50.26c7.35,8.66,45.33,24.53,59.2,16,53.84-33.13,5.55-66.72,5.55-66.72"/><circle class="cls-8" cx="1507.04" cy="486.39" r="10.29"/><circle class="cls-8" cx="1607.02" cy="488.83" r="9.07"/><ellipse class="cls-8" cx="1501.63" cy="481.39" rx="4.3" ry="5.76" transform="translate(10.66 994.83) rotate(-36.78)"/><ellipse class="cls-8" cx="1605.37" cy="483.9" rx="4" ry="5.44" transform="translate(-64.67 334.49) rotate(-11.66)"/><g><path class="cls-10" d="m102.78,346.04s-22.1,12.61-30.8,43.14c-8.7,30.53,4.02,34.23,11.38,61.99,7.37,27.76,19.42,52.96,19.42,52.96,0,0,20.09-34.91,21.43-45.32,1.34-10.42,11.38-37.2,6.7-60.82-4.69-23.62-28.12-51.95-28.12-51.95Z"/><path class="cls-12" d="m102.78,375.89s-16.56,12.07-13.21,28.24c3.35,16.17,13.21,51.33,13.21,51.33,0,0,11.56-33.49,8.88-48.67-2.68-15.18-8.88-30.9-8.88-30.9Z"/></g><path class="cls-8" d="m72.06,162.73s-20.14,10.14-13.1,33.55c7.37,24.54,29.07,20.52,40.08,13.46,25.31-16.24,9.67-47.01,9.67-47.01"/><path class="cls-8" d="m122.92,164.27s-14.18,23.7-4.54,36.06c4.84,6.21,29.88,17.6,39.02,11.48,35.5-23.77,3.66-47.87,3.66-47.87"/><ellipse class="cls-8" cx="78.7" cy="190.54" rx="6.78" ry="7.38"/><ellipse class="cls-8" cx="144.6" cy="192.29" rx="5.98" ry="6.51"/><ellipse class="cls-8" cx="75.13" cy="186.95" rx="2.91" ry="4.03" transform="translate(-81.96 60.78) rotate(-29.33)"/><ellipse class="cls-8" cx="143.51" cy="188.75" rx="2.64" ry="3.89" transform="translate(-28.03 25.05) rotate(-9.09)"/><g><path class="cls-10" d="m949.91,273.1s-28.89,13.98-40.28,47.84c-11.38,33.86,5.25,37.97,14.88,68.75,9.63,30.78,25.39,58.74,25.39,58.74,0,0,26.27-38.71,28.02-50.26,1.75-11.55,14.88-41.26,8.76-67.45-6.13-26.19-36.77-57.61-36.77-57.61Z"/><path class="cls-12" d="m949.91,306.2s-21.65,13.39-17.28,31.32c4.38,17.93,17.28,56.92,17.28,56.92,0,0,15.12-37.14,11.62-53.97-3.5-16.83-11.62-34.27-11.62-34.27Z"/></g><g><path class="cls-8" d="m455.56,250.38c-8.24-9.21-10.3-13.57-3.15-20.98,6.22-6.44,8.79,1.4,8.79,1.4,0,0-4.39-6.4,3.96-6.01,8.35.39,17.67,6.05,13.27,18.58-4.39,12.54,6.47,18.27,5.48,41.17-.99,22.9-7.27,11.75-5.23,14.02,2.04,2.27-14.3,1.14-15.24-2.42-9.15-34.54-5.46-43.04-7.89-45.76Z"/><ellipse class="cls-8" cx="460.11" cy="305.47" rx="13.9" ry="16.05" transform="translate(130.07 748.28) rotate(-86.88)"/><circle class="cls-8" cx="485.61" cy="306.85" r="15.08"/><path class="cls-8" d="m450.99,299.74s-4.69-5.9-5.7-5.29"/><path class="cls-8" d="m448.14,304.02c-3.75-1.45-5.7-2.24-5.7-2.24"/><path class="cls-8" d="m450.98,304.02c.71-.88-3.31-4.98-3.31-4.98"/><path class="cls-3" d="m494.19,298.32s1.83-6.99,4.07-6.55"/><path class="cls-8" d="m492.64,305.08c-.04-1.05,1.43-4.55,2.23-5.58"/><path class="cls-3" d="m497.45,305.47s1.93-6.16,3.93-5.55"/><path class="cls-3" d="m495.87,304.02s1.4-7.16,3.2-8.29"/><path class="cls-8" d="m468.49,311.76c.39.23,1.74,2.81,1.74,2.81"/><path class="cls-8" d="m468.94,315.33c-.86-1.32-3.57-2.32-3.57-2.32"/><path class="cls-2" d="m457.36,250.64s6.84,2.61,18.78-2.88"/><path class="cls-9" d="m470.23,256.34s2.51,0,4.04,3.64c.33.79.61,1.74.82,2.9"/><path class="cls-9" d="m468.07,265.67s-2.13,3.76-1.15,6.38c.98,2.62,2.44,2.13,3.18,5.4s-.88,7.2-.64,8.02"/></g><g><path class="cls-8" d="m1128.21,420.9c-8.24-9.21-10.3-13.57-3.15-20.98,6.22-6.44,8.79,1.4,8.79,1.4,0,0-4.39-6.4,3.96-6.01,8.35.39,17.67,6.05,13.27,18.58-4.39,12.54,6.47,18.27,5.48,41.17-.99,22.9-7.27,11.75-5.23,14.02s-14.3,1.14-15.24-2.42c-9.15-34.54-5.46-43.04-7.89-45.76Z"/><ellipse class="cls-8" cx="1132.76" cy="475.99" rx="13.9" ry="16.05" transform="translate(595.86 1581.19) rotate(-86.88)"/><circle class="cls-8" cx="1158.26" cy="477.38" r="15.08"/><path class="cls-8" d="m1123.65,470.26s-4.69-5.9-5.7-5.29"/><path class="cls-8" d="m1120.79,474.55c-3.75-1.45-5.7-2.24-5.7-2.24"/><path class="cls-8" d="m1123.63,474.55c.71-.88-3.31-4.98-3.31-4.98"/><path class="cls-3" d="m1166.84,468.84s1.83-6.99,4.07-6.55"/><path class="cls-8" d="m1165.29,475.6c-.04-1.05,1.43-4.55,2.23-5.58"/><path class="cls-3" d="m1170.1,475.99s1.93-6.16,3.93-5.55"/><path class="cls-3" d="m1168.52,474.55s1.4-7.16,3.2-8.29"/><path class="cls-8" d="m1141.14,482.28c.39.23,1.74,2.81,1.74,2.81"/><path class="cls-8" d="m1141.59,485.85c-.86-1.32-3.57-2.32-3.57-2.32"/><path class="cls-2" d="m1130.01,421.16s6.84,2.61,18.78-2.88"/><path class="cls-9" d="m1142.89,426.87s2.51,0,4.04,3.64c.33.79.61,1.74.82,2.9"/><path class="cls-9" d="m1140.73,436.19s-2.13,3.76-1.15,6.38,2.44,2.13,3.18,5.4-.88,7.2-.64,8.02"/></g><g><path class="cls-8" d="m1605.02,195.02c10.63-13.24,13.29-19.51,4.06-30.17-8.02-9.26-11.34,2.01-11.34,2.01,0,0,5.67-9.2-5.11-8.64-10.78.56-22.8,8.7-17.13,26.72,5.67,18.02-8.35,26.27-7.07,59.19,1.28,32.92,9.39,16.89,6.75,20.16-2.64,3.27,18.45,1.65,19.66-3.48,11.81-49.65,7.04-61.88,10.18-65.78Z"/><ellipse class="cls-8" cx="1599.14" cy="274.22" rx="20.73" ry="19.96" transform="translate(-21.82 344.39) rotate(-12.21)"/><ellipse class="cls-8" cx="1566.24" cy="276.21" rx="19.46" ry="21.69"/><path class="cls-8" d="m1610.9,265.98s6.05-8.48,7.36-7.6"/><path class="cls-8" d="m1614.58,272.14c4.84-2.08,7.36-3.22,7.36-3.22"/><path class="cls-8" d="m1610.92,272.14c-.91-1.26,4.27-7.16,4.27-7.16"/><path class="cls-3" d="m1555.17,263.94s-2.37-10.04-5.26-9.42"/><path class="cls-8" d="m1557.17,273.66c.05-1.51-1.84-6.54-2.87-8.02"/><path class="cls-3" d="m1550.96,274.22s-2.49-8.85-5.07-7.97"/><path class="cls-3" d="m1553,272.14s-1.8-10.3-4.13-11.92"/><path class="cls-8" d="m1588.33,283.26c-.5.34-2.25,4.04-2.25,4.04"/><path class="cls-8" d="m1587.75,288.4c1.11-1.9,4.6-3.34,4.6-3.34"/><path class="cls-2" d="m1602.69,195.39s-8.82,3.76-24.23-4.13"/><path class="cls-9" d="m1586.08,203.59s-3.24,0-5.22,5.23c-.43,1.13-.79,2.5-1.06,4.17"/><path class="cls-9" d="m1588.86,217s2.74,5.41,1.48,9.17c-1.27,3.76-3.15,3.06-4.11,7.76-.96,4.7,1.13,10.35.82,11.52"/></g><g><path class="cls-8" d="m1283.94,189.74s7.93,41.56,4.75,41.08c-42.18-6.32-66.66,66.04-7.65,79.08,50.99,11.27,53.43-29.5,53.84-38.28.59-12.67-4.66,49.39,64.05,32.83,29.39-7.08,40.56-46.16,16.4-69.63-18.18-17.66-33.91-6.63-40.42-11.43-6.51-4.8,7.56-46.52,7.56-46.52,0,0-45.74,8.82-98.52,12.87Z"/><g><line class="cls-8" x1="1327.64" y1="257.93" x2="1340.55" y2="287.62"/><line class="cls-8" x1="1319.06" y1="278.09" x2="1351.56" y2="266.65"/><line class="cls-8" x1="1342.42" y1="256.87" x2="1329.08" y2="285.99"/><line class="cls-8" x1="1317.62" y1="266.21" x2="1350.82" y2="278.32"/></g></g><g><path class="cls-8" d="m274.44,171.69s3.48,28.94,1.19,28.44c-30.43-6.54-52.3,41.85-9.97,53.88,36.58,10.39,40.62-17.46,41.41-23.47,1.13-8.67-6.14,33.65,44.91,25.88,21.83-3.33,32.15-29.57,15.83-46.93-12.28-13.07-24.37-6.32-28.86-9.96-4.48-3.63.04-9.52.04-9.52,0,0-25.6-5.21-64.54-18.32Z"/><g><line class="cls-8" x1="302.55" y1="220.77" x2="310.32" y2="241.82"/><line class="cls-8" x1="295.16" y1="234.16" x2="319.51" y2="228"/><line class="cls-8" x1="313.39" y1="220.82" x2="302.04" y2="240.11"/><line class="cls-8" x1="294.77" y1="225.93" x2="318.33" y2="235.98"/></g></g><g><path class="cls-8" d="m1288.72,414.13s-5.74,12.74,7.18,28.44c11.02,13.39-4.31,34.81-4.31,34.81-12.92,6.15-29.05,50.94,1.22,62.41,26.15,9.91,30.59-11.51,31.48-16.13,1.29-6.67-6.28,25.81,31.4,22.34,16.12-1.48,25.11-26.05,17.45-42.38-3.51-7.5-3.17-11.38-14.69-24.86-8.77-10.26-7.04-22.78,3.13-31.21,13.82-11.47,8.44-29.28,8.44-29.28,0,0-55.99-1.1-81.29-4.14Z"/><path class="cls-2" d="m1332.04,421.84s-9.07,14.86-7.47,40.45c1.25,20.08,6.12,41.77,1.16,56.84"/></g><path class="cls-8" d="m406.4,373.81s-5.51,28.12,8.44,38.72c11.9,9.05,0,26.16,0,26.16-9.62,7.72-13.1,55.32,14.55,58.93,23.89,3.12,23.37-15.72,23.2-19.77-.24-5.85-.15,22.89,30.77,12.51,13.22-4.44,15.89-26.83,6.23-39-4.43-5.59-4.92-8.91-17.25-17.93-9.39-6.87-10.42-17.71-3.57-26.8,9.32-12.36,1.75-33.35,1.75-33.35,0,0-42.3-1.94-64.12.53Z"/><g><rect class="cls-6" x="627.58" y="834.79" width="495.73" height="226.76" rx="47.56" ry="47.56"/><path class="cls-4" d="m660.7,873.92s110.62-.14,205.98,0c0,0,2.43-1.85-.7,7.95l-1.09.22c1.09-.22-69.8,40.84-85.5,115.18-.66,3.1-.21,4.37-6.86,3.4-7.68-1.12-20.79,1.11-15.66-3.4,6.67-5.86-49.84-102.74-93.31-114.82l-2.62-.43s-3.44-4.43-.24-8.09Z"/><path class="cls-5" d="m976.56,912.77s-31.8-62.33-64.13-38.48c-33.04,24.36-17.64,48.1-17.64,48.1l81.77,80.17,73.75-83.37s17.05-34.43-20.84-48.82c-39.31-14.93-52.91,42.41-52.91,42.41Z"/><g><path class="cls-15" d="m970.44,1041.45c-1.24.58-3.2,1.11-5.86,1.57-2.45.43-4.46.64-6.01.64-1.11,0-1.91-.17-2.39-.51-.66-.46-.99-1.31-.99-2.54l.33-5.46c.29-5.04.43-10.63.43-16.77,0-.47.16-.88.47-1.21s.7-.5,1.16-.5.87.17,1.18.5.47.73.47,1.21c0,6.22-.15,11.87-.45,16.97l-.21,2.51c-.09.91-.12,1.72-.1,2.43,2.87.03,6.5-.64,10.89-2.03.19-.05.36-.08.53-.08.47,0,.87.19,1.19.56.28.34.41.73.41,1.17,0,.71-.35,1.22-1.06,1.55Z"/><path class="cls-15" d="m978.33,1034.64c0,.66.02,1.65.06,2.96.04,1.31.06,2.3.06,2.96,0,.48-.15.88-.45,1.19-.3.31-.69.46-1.17.46s-.86-.15-1.16-.46c-.3-.31-.45-.7-.45-1.19,0-.66-.02-1.65-.06-2.96-.04-1.32-.06-2.3-.06-2.96,0-1.03.05-2.32.16-3.87.11-1.55.17-2.84.17-3.87,0-.5.15-.9.45-1.2.3-.31.69-.46,1.16-.46s.86.15,1.16.46c.3.31.45.71.45,1.2,0,1.04-.06,2.33-.17,3.87-.11,1.55-.17,2.84-.17,3.87Zm-.74-13.4c-.53,0-.98-.19-1.37-.56-.38-.37-.58-.83-.58-1.35s.19-.98.58-1.35c.39-.37.84-.56,1.37-.56s.98.19,1.36.56c.38.37.57.83.57,1.35s-.19.98-.57,1.35c-.38.37-.83.56-1.36.56Z"/><path class="cls-15" d="m991.52,1041.27c-.03,1.01-.53,1.52-1.5,1.52-.8,0-1.39-.47-1.75-1.42l-2.53-6.7-2.94-7.58c-.11-.29-.17-.54-.17-.76,0-.45.17-.84.51-1.16.34-.32.74-.48,1.19-.48.66,0,1.13.34,1.42,1.01l4.19,11.54c.83-1.76,1.87-4.31,3.12-7.66.3-.88.76-2.12,1.4-3.73.34-.7.83-1.06,1.45-1.06.45,0,.85.16,1.19.48.34.32.51.7.51,1.14s-.91,2.77-2.72,7.06l-3.38,7.79Z"/></g><g><path class="cls-14" d="m737.54,1032.44c-.31,0-.98-.07-2.01-.21-.09,1.66-.13,4.57-.13,8.73,0,.44-.14.81-.43,1.11s-.64.45-1.07.45-.8-.15-1.09-.45-.43-.67-.43-1.11v-4.85c0-1.62.1-3.89.3-6.83.22-3.18.34-5.46.36-6.83v-2.28c0-1.09.07-1.88.2-2.38.25-.97.79-1.39,1.62-1.25.35-.11.85-.19,1.5-.25.65-.05,1.45-.08,2.39-.08,2.01,0,3.9.69,5.66,2.06,1.94,1.52,2.9,3.35,2.9,5.48,0,2.73-1.03,4.9-3.1,6.52-1.85,1.45-4.07,2.18-6.67,2.18Zm.83-13.1c-.48,0-.92.01-1.3.03-.38.02-.7.05-.97.1l-.03,3.04-.35,6.57,1.82.21c1.85,0,3.41-.47,4.67-1.4,1.39-1.02,2.08-2.4,2.08-4.14,0-1.23-.66-2.29-1.98-3.18-1.22-.81-2.54-1.22-3.94-1.22Z"/><path class="cls-14" d="m756.8,1043.11c-1.85,0-3.44-.68-4.77-2.05-1.49-1.52-2.27-3.56-2.34-6.12-.07-2.49.56-4.68,1.88-6.57,1.54-2.23,3.69-3.35,6.44-3.35,2.2,0,3.87,1.01,5,3.02.9,1.63,1.34,3.59,1.3,5.88-.03,2.44-.67,4.53-1.91,6.26-1.41,1.96-3.27,2.94-5.6,2.94Zm.99-14.74c-1.62-.01-2.88.76-3.78,2.31-.72,1.24-1.07,2.66-1.07,4.26s.43,2.84,1.3,3.73c.73.74,1.58,1.11,2.56,1.11,1.14,0,2.13-.42,2.95-1.25.94-.92,1.43-2.17,1.49-3.75.15-4.26-1-6.39-3.45-6.4Z"/><path class="cls-14" d="m772.28,1034.64c0,.66.02,1.65.06,2.96.04,1.31.06,2.3.06,2.96,0,.48-.15.88-.45,1.19-.3.31-.69.46-1.17.46s-.86-.15-1.16-.46c-.3-.31-.45-.7-.45-1.19,0-.66-.02-1.65-.06-2.96-.04-1.32-.06-2.3-.06-2.96,0-1.03.05-2.32.17-3.87.11-1.55.17-2.84.17-3.87,0-.5.15-.9.45-1.2.3-.31.69-.46,1.16-.46s.86.15,1.16.46c.3.31.45.71.45,1.2,0,1.04-.06,2.33-.17,3.87-.11,1.55-.17,2.84-.17,3.87Zm-.74-13.4c-.53,0-.98-.19-1.37-.56s-.58-.83-.58-1.35.19-.98.58-1.35.84-.56,1.37-.56.98.19,1.36.56c.38.37.57.83.57,1.35s-.19.98-.57,1.35c-.38.37-.83.56-1.36.56Z"/><path class="cls-14" d="m790.52,1043.3c-.95,0-1.48-.52-1.6-1.55l-.46-3.61c-.15-1.29-.23-2.49-.23-3.61,0-.31.02-.83.06-1.57s.06-1.26.06-1.57c0-2.38-.44-3.57-1.32-3.57-1.23,0-2.41.73-3.53,2.2-1.01,1.33-1.8,3.01-2.38,5.05-.02.43-.07.97-.15,1.62-.07.55-.1,1.08-.1,1.6,0,.33.03.83.1,1.49s.1,1.16.1,1.49c0,.5-.15.9-.45,1.21-.3.31-.69.46-1.16.46s-.87-.15-1.17-.46c-.3-.31-.45-.71-.45-1.21,0-.33-.04-.83-.11-1.49-.07-.66-.11-1.16-.11-1.49,0-1.13.08-2.7.24-4.71.16-2.01.24-3.58.24-4.71,0-.35-.02-.88-.06-1.57s-.06-1.22-.06-1.57c0-.47.16-.86.47-1.16.31-.3.7-.45,1.16-.45,1.01,0,1.57.72,1.67,2.15l.05,1.93c1.85-2.46,3.75-3.7,5.69-3.7,1.76,0,2.99.78,3.68,2.33.47,1.03.73,2.56.78,4.59v1.67l-.02,1.54c0,.91.12,2.09.35,3.54.24,1.45.35,2.62.35,3.52,0,.48-.16.88-.47,1.18s-.71.45-1.18.45Z"/><path class="cls-14" d="m806.59,1028.07c-.23,0-.5-.01-.82-.03-.31-.02-.59-.03-.82-.03-.25,0-1,.08-2.24.25l.31,9.75.02.73.02.84c.04,2.41-.53,3.62-1.73,3.62-.44,0-.82-.14-1.15-.43-.32-.29-.49-.64-.49-1.07s.02-1.05.05-1.88.05-1.46.05-1.88l-.33-9.64c-.8-.03-2.02-.13-3.66-.28-.98-.13-1.47-.68-1.47-1.63,0-.48.15-.89.45-1.21.3-.32.68-.48,1.14-.48l3.47.28c0-.56-.02-1.31-.07-2.25-.05-.94-.07-1.62-.07-2.04,0-.46.16-.84.48-1.15.32-.3.71-.45,1.17-.45.99,0,1.57.81,1.73,2.43.03.41.05.9.05,1.47l-.03.96-.02,1.02c1.36-.18,2.15-.26,2.34-.26,1.14,0,1.89.05,2.24.17.67.22,1.01.74,1.01,1.55,0,.48-.15.88-.45,1.2-.3.31-.69.47-1.16.47Z"/></g></g></svg>