<?xml version="1.0" encoding="UTF-8"?><svg id="Layer_1" xmlns="http://www.w3.org/2000/svg" width="5.12cm" height="4.31cm" viewBox="0 0 145.26 122.26"><defs><style>.cls-1{fill:none;stroke-width:3px;}.cls-1,.cls-2{stroke:#231f20;stroke-miterlimit:10;}.cls-3{fill:#7f5f19;}.cls-2{fill:#e2a93b;stroke-width:2px;}</style></defs><path class="cls-2" d="m143.9,77.31c-.58-4.34,2.11-55.48-11.21-66.06S83.56-.92,35.2,3.13C-10.21,6.94,2.7,74.38,2.7,74.38l4.38,46.88h133.27s5.33-30.82,3.56-43.94Z"/><path class="cls-3" d="m83.84,8.47c.79,3.33-.98,3.33-2.19,3.33s-1.53-1.78-2.19-3.33c-.68-1.63.98-3.33,2.19-3.33s1.77,1.6,2.19,3.33Z"/><path class="cls-3" d="m63.2,76.57c3.1,4.83-3.82,4.83-8.54,4.83s-6-2.58-8.54-4.83c-2.68-2.36,3.82-4.83,8.54-4.83s6.93,2.32,8.54,4.83Z"/><path class="cls-3" d="m34.25,25.86c1.37,3.04-1.69,3.04-3.78,3.04s-2.65-1.63-3.78-3.04c-1.18-1.49,1.69-3.04,3.78-3.04s3.07,1.46,3.78,3.04Z"/><path class="cls-3" d="m92.6,111.72c2.27,4.24-2.8,4.24-6.25,4.24s-4.39-2.27-6.25-4.24c-1.96-2.07,2.8-4.24,6.25-4.24s5.07,2.04,6.25,4.24Z"/><path class="cls-3" d="m79.65,93.68c2.35,4.19-2.9,4.19-6.47,4.19s-4.54-2.24-6.47-4.19c-2.03-2.05,2.9-4.19,6.47-4.19s5.25,2.01,6.47,4.19Z"/><path class="cls-3" d="m34.07,105.7c1.31,3.54-1.61,3.54-3.6,3.54s-2.53-1.9-3.6-3.54c-1.13-1.73,1.61-3.54,3.6-3.54s2.92,1.7,3.6,3.54Z"/><path class="cls-3" d="m95.04,100.37c2.77,3.54-3.41,3.54-7.63,3.54s-5.36-1.9-7.63-3.54c-2.39-1.73,3.41-3.54,7.63-3.54s6.19,1.7,7.63,3.54Z"/><path class="cls-3" d="m81.08,85.03c.79,2.19-.98,2.19-2.19,2.19s-1.53-1.17-2.19-2.19c-.68-1.07.98-2.19,2.19-2.19s1.77,1.05,2.19,2.19Z"/><path class="cls-3" d="m58.09,41.8c1.14,2.19-1.41,2.19-3.15,2.19s-2.21-1.17-3.15-2.19c-.99-1.07,1.41-2.19,3.15-2.19s2.56,1.05,3.15,2.19Z"/><path class="cls-3" d="m127.32,46.27c2.02,4.47-2.5,4.47-5.58,4.47s-3.92-2.39-5.58-4.47c-1.75-2.19,2.5-4.47,5.58-4.47s4.53,2.15,5.58,4.47Z"/><path class="cls-3" d="m56.15,58.65c1.8,5.67-2.22,5.67-4.97,5.67s-3.49-3.03-4.97-5.67c-1.55-2.77,2.22-5.67,4.97-5.67s4.03,2.73,4.97,5.67Z"/><path class="cls-3" d="m81.24,39.02c1.76,4.55-2.18,4.55-4.86,4.55s-3.41-2.43-4.86-4.55c-1.52-2.22,2.18-4.55,4.86-4.55s3.95,2.19,4.86,4.55Z"/><path class="cls-3" d="m69.93,26.22c1.35,3.4-1.67,3.4-3.72,3.4s-2.61-1.82-3.72-3.4c-1.17-1.66,1.67-3.4,3.72-3.4s3.02,1.64,3.72,3.4Z"/><path class="cls-3" d="m42.16,59.89c1.74,3.13-2.14,3.13-4.79,3.13s-3.36-1.67-4.79-3.13c-1.5-1.53,2.14-3.13,4.79-3.13s3.89,1.5,4.79,3.13Z"/><path class="cls-3" d="m18.68,63.38c2.14,5.06-2.64,5.06-5.9,5.06s-4.15-2.71-5.9-5.06c-1.85-2.48,2.64-5.06,5.9-5.06s4.79,2.43,5.9,5.06Z"/><path class="cls-3" d="m25.47,47.31c1.22,3.33-1.5,3.33-3.36,3.33s-2.36-1.78-3.36-3.33c-1.05-1.63,1.5-3.33,3.36-3.33s2.73,1.6,3.36,3.33Z"/><path class="cls-3" d="m30.81,77.47c1.33,3.04-1.64,3.04-3.66,3.04s-2.57-1.63-3.66-3.04c-1.15-1.49,1.64-3.04,3.66-3.04s2.97,1.46,3.66,3.04Z"/><path class="cls-3" d="m88.79,74.33c1.83,3.34-2.26,3.34-5.05,3.34s-3.55-1.78-5.05-3.34c-1.58-1.63,2.26-3.34,5.05-3.34s4.1,1.6,5.05,3.34Z"/><path class="cls-3" d="m112.3,36.12c1.5,4.04-1.85,4.04-4.13,4.04s-2.9-2.16-4.13-4.04c-1.29-1.98,1.85-4.04,4.13-4.04s3.35,1.94,4.13,4.04Z"/><path class="cls-3" d="m90.94,28.89c1.7,2.68-2.09,2.68-4.68,2.68s-3.29-1.43-4.68-2.68c-1.46-1.31,2.09-2.68,4.68-2.68s3.8,1.29,4.68,2.68Z"/><path class="cls-3" d="m105.96,53.6c-5.33,3.21-6.31-.73-6.99-3.42-.67-2.69,2.23-4.19,4.55-6.31,2.44-2.23,6.31.73,6.99,3.42.67,2.69-1.78,4.65-4.55,6.31Z"/><path class="cls-3" d="m125.5,27.97c2,4.6-2.47,4.6-5.51,4.6s-3.87-2.46-5.51-4.6c-1.72-2.25,2.47-4.6,5.51-4.6s4.47,2.21,5.51,4.6Z"/><path class="cls-3" d="m91.67,57.79c1.93,4.99-2.38,4.99-5.31,4.99s-3.73-2.67-5.31-4.99c-1.66-2.44,2.38-4.99,5.31-4.99s4.31,2.4,5.31,4.99Z"/><path class="cls-3" d="m117.44,104.59c1.25,4.24-1.54,4.24-3.44,4.24s-2.42-2.27-3.44-4.24c-1.08-2.08,1.54-4.24,3.44-4.24s2.79,2.04,3.44,4.24Z"/><path class="cls-3" d="m112.48,46.72c.79,2.19-.98,2.19-2.19,2.19s-1.53-1.17-2.19-2.19c-.68-1.07.98-2.19,2.19-2.19s1.77,1.05,2.19,2.19Z"/><path class="cls-3" d="m108.12,19.78c1.41,3.04-1.74,3.04-3.89,3.04s-2.73-1.62-3.89-3.04c-1.22-1.49,1.74-3.04,3.89-3.04s3.16,1.46,3.89,3.04Z"/><path class="cls-3" d="m116.02,72.38c1.41,1.94-1.74,1.94-3.9,1.94s-2.74-1.04-3.9-1.94c-1.22-.95,1.74-1.94,3.9-1.94s3.16.93,3.9,1.94Z"/><path class="cls-3" d="m129.88,88.86c1.24,3.12-1.53,3.12-3.41,3.12s-2.39-1.67-3.41-3.12c-1.07-1.52,1.53-3.12,3.41-3.12s2.77,1.5,3.41,3.12Z"/><path class="cls-3" d="m77.4,51.75c2.69,3.85-3.32,3.85-7.42,3.85s-5.21-2.06-7.42-3.85c-2.32-1.88,3.32-3.85,7.42-3.85s6.02,1.85,7.42,3.85Z"/><path class="cls-3" d="m116.59,82.95c3.93,3.12-2.6,4.82-7.04,5.98s-6.2-.6-9.07-1.78c-3.02-1.24,2.6-4.82,7.04-5.98s7.02.16,9.07,1.78Z"/><path class="cls-3" d="m137.59,104.32c2.78,3.57-3.43,3.57-7.66,3.57s-5.38-1.91-7.66-3.57c-2.4-1.75,3.43-3.57,7.66-3.57s6.22,1.72,7.66,3.57Z"/><path class="cls-3" d="m67.46,106.8c1.79,4.64-2.21,4.64-4.93,4.64s-3.46-2.48-4.93-4.64c-1.54-2.27,2.21-4.64,4.93-4.64s4,2.23,4.93,4.64Z"/><path class="cls-3" d="m140.45,85.74c.79,2.19-.98,2.19-2.19,2.19s-1.53-1.17-2.19-2.19c-.68-1.07.98-2.19,2.19-2.19s1.77,1.05,2.19,2.19Z"/><path class="cls-3" d="m133.32,68.25c-4.1,3.58-5.57.17-6.57-2.15s1.27-4.05,2.94-6.26c1.76-2.32,5.57-.17,6.57,2.15s-.81,4.4-2.94,6.26Z"/><path class="cls-3" d="m10.2,84.76c-4.09,1.52-4.4-.22-4.61-1.41s2-1.91,3.85-2.89c1.95-1.04,4.4.22,4.61,1.41s-1.73,2.1-3.85,2.89Z"/><path class="cls-3" d="m17.6,97.86c1.75,4.06-2.15,4.06-4.81,4.06s-3.38-2.17-4.81-4.06c-1.51-1.99,2.15-4.06,4.81-4.06s3.91,1.95,4.81,4.06Z"/><path class="cls-3" d="m47.98,111.65c2.42,2.4-2.98,2.4-6.66,2.4s-4.68-1.29-6.66-2.4c-2.09-1.18,2.98-2.4,6.66-2.4s5.4,1.16,6.66,2.4Z"/><path class="cls-3" d="m17.41,110.21c1.85,3.41-2.29,3.41-5.1,3.41s-3.58-1.82-5.1-3.41c-1.6-1.67,2.29-3.41,5.1-3.41s4.14,1.64,5.1,3.41Z"/><path class="cls-3" d="m48.39,100.37c.79,2.19-.98,2.19-2.19,2.19s-1.53-1.17-2.19-2.19c-.68-1.07.98-2.19,2.19-2.19s1.77,1.05,2.19,2.19Z"/><path class="cls-3" d="m37.92,91.18c1.37,5.22-1.69,5.22-3.78,5.22s-2.65-2.79-3.78-5.22c-1.18-2.55,1.69-5.22,3.78-5.22s3.07,2.51,3.78,5.22Z"/><path class="cls-3" d="m19.92,82.72c1.25,6.14-1.54,6.14-3.44,6.14s-2.41-3.28-3.44-6.14c-1.08-3,1.54-6.14,3.44-6.14s2.79,2.95,3.44,6.14Z"/><path class="cls-3" d="m27.94,15.49c1.05,3.78-1.64,3.67-3.48,3.59s-2.25-2.09-3.17-3.87c-.96-1.87,1.64-3.67,3.48-3.59s2.62,1.91,3.17,3.87Z"/><path class="cls-3" d="m75.78,10.6c2-5.71-2.47-5.71-5.52-5.71s-3.88,3.06-5.52,5.71c-1.73,2.8,2.47,5.71,5.52,5.71s4.48-2.75,5.52-5.71Z"/><path class="cls-3" d="m19.75,27.38c1.94,2.85-2.4,2.85-5.36,2.85s-3.76-1.53-5.36-2.85c-1.68-1.39,2.4-2.85,5.36-2.85s4.35,1.37,5.36,2.85Z"/><path class="cls-3" d="m23.96,34.26c1.93,2.19-2.38,2.19-5.31,2.19s-3.73-1.17-5.31-2.19c-1.66-1.07,2.38-2.19,5.31-2.19s4.31,1.05,5.31,2.19Z"/><path class="cls-3" d="m50.59,26.78c1.87,4.05-2.3,4.05-5.14,4.05s-3.61-2.17-5.14-4.05c-1.61-1.98,2.3-4.05,5.14-4.05s4.17,1.95,5.14,4.05Z"/><path class="cls-3" d="m56.25,8.63c1.38,3.74-1.71,3.74-3.81,3.74s-2.68-2-3.81-3.74c-1.19-1.83,1.71-3.74,3.81-3.74s3.1,1.8,3.81,3.74Z"/><path class="cls-3" d="m41.49,39.61c.79,2.19-.98,2.19-2.19,2.19s-1.53-1.17-2.19-2.19c-.68-1.07.98-2.19,2.19-2.19s1.77,1.05,2.19,2.19Z"/><path class="cls-3" d="m121.63,10.7c3.03,1.72-1.36,3.56-4.35,4.81s-4.37.23-6.48-.28c-2.22-.53,1.36-3.56,4.35-4.81s4.91-.62,6.48.28Z"/><path class="cls-3" d="m66.5,69.47c.79,2.19-.98,2.19-2.19,2.19s-1.53-1.17-2.19-2.19c-.68-1.07.98-2.19,2.19-2.19s1.77,1.05,2.19,2.19Z"/><path class="cls-3" d="m103.99,7.07c1.1,2.19-1.36,2.19-3.04,2.19s-2.13-1.17-3.04-2.19c-.95-1.07,1.36-2.19,3.04-2.19s2.47,1.05,3.04,2.19Z"/><path class="cls-3" d="m17.86,121.12c-1.97-5.11,2.81-10.44,6.28-10.44s5.09,5.02,6.28,10.44"/><path class="cls-3" d="m101.87,121.26c-1.69-3.07,2.42-6.28,5.4-6.28s4.38,3.02,5.4,6.28"/><path class="cls-3" d="m49.41,120.84c-.93-1.77,1.33-3.63,2.96-3.63s2.4,1.74,2.96,3.63"/><path class="cls-3" d="m63.99,120.9c-1.61-2.2,2.3-4.5,5.14-4.5s4.17,2.16,5.14,4.5"/><path class="cls-3" d="m91.42,120.84c-.68-1.07.98-2.19,2.19-2.19s1.77,1.05,2.19,2.19"/><path class="cls-3" d="m127.36,120.84c-1.27-2.61,1.81-5.34,4.04-5.34s3.28,2.57,4.04,5.34"/><path class="cls-1" d="m60.94,67.68c2.91-.97,3.1-2.71,6.79-1.16"/><path class="cls-1" d="m47.5,75.01c-.19-1.55,9.31-4.85,10.67-3.68"/><path class="cls-1" d="m46.33,80.44s2.13,3.1,6.49,2.52,3.2-2.52,3.2-2.52c0,0,.39-1.16,5.04,0s3.1-5.43,3.1-5.43"/><path class="cls-1" d="m73.49,56.29s2.13,1.36,0,1.75-3.68,1.94-5.04-1.75"/><path class="cls-1" d="m104.76,72.38s4.27-5.04,10.08-2.91"/><path class="cls-1" d="m44.15,104.34c3.3-1.55,5.04-3.88,5.04-3.88,0,0,1.55-3.54,4.65-1.38s4.46,0,4.46,0v-3.66"/><path class="cls-1" d="m73.98,75.03c5.43-.19,9.89,1.75,8.34,3.49"/><path class="cls-1" d="m64.01,113.42s-.58-5.24,2.91-2.71"/><path class="cls-1" d="m114.09,27.3c-.19-1.55,9.31-4.85,10.67-3.68"/><path class="cls-1" d="m46.33,80.44s2.13,3.1,6.49,2.52,3.2-2.52,3.2-2.52c0,0,.39-1.16,5.04,0s3.1-5.43,3.1-5.43"/><path class="cls-1" d="m87.21,77.11s2.13,1.36,0,1.75-3.68,1.94-5.04-1.75"/><path class="cls-1" d="m67.59,92.72s4.27-5.04,10.08-2.91"/><path class="cls-1" d="m73.98,75.03c5.43-.19,9.89,1.75,8.34,3.49"/><path class="cls-1" d="m64.01,113.42s-.58-5.24,2.91-2.71"/><path class="cls-1" d="m11.87,83.49s2.13,1.36,0,1.75-3.68,1.94-5.04-1.75"/><path class="cls-1" d="m77.76,69.42s6.05-2.64,10.33,1.85"/><path class="cls-1" d="m44.95,53.56c2.91-.97,3.1-2.71,6.79-1.16"/><path class="cls-1" d="m97.27,74.97s1.46-.49,1.82,0"/><path class="cls-1" d="m5.67,96.39c-.19-1.55,9.31-4.85,10.67-3.68"/><path class="cls-1" d="m50.56,110.25s2.13,3.1,6.49,2.52,3.2-2.52,3.2-2.52c0,0,.39-1.16,5.04,0s3.1-5.43,3.1-5.43"/><path class="cls-1" d="m81.36,110.97s4.27-5.04,10.08-2.91"/><path class="cls-1" d="m7.9,37.33c3.3-1.55,5.04-3.88,5.04-3.88,0,0,1.55-3.54,4.65-1.38s4.46,0,4.46,0v-3.66"/><path class="cls-1" d="m64.13,21.04c5.26,1.36,8.99,4.48,7,5.72"/><path class="cls-1" d="m47.84,117.88c2.91-.97,3.1-2.71,6.79-1.16"/><circle class="cls-1" cx="29.19" cy="39.77" r=".18"/><path class="cls-1" d="m33.1,93.47s-3.83-.66-3.86-.66-.05,0-.05.02.02.02.05.02,3.86.63,3.86.62Z"/><path class="cls-1" d="m80.07,28.67c-.14-1.64,6.75-5.12,7.73-3.89"/><path class="cls-1" d="m50.56,110.25s2.13,3.1,6.49,2.52,3.2-2.52,3.2-2.52c0,0,.39-1.16,5.04,0s3.1-5.43,3.1-5.43"/><path class="cls-1" d="m26.1,88.39s4.27-5.04,10.08-2.91"/><path class="cls-1" d="m71.24,16.83c3.3-1.55,5.04-3.88,5.04-3.88,0,0,1.55-3.54,4.65-1.38s4.46,0,4.46,0v-3.66"/><path class="cls-1" d="m133.41,69.77c-4.06,1.14-8-.77-7.33-3.4"/><path class="cls-1" d="m21.3,75.37c2.91-.97,3.1-2.71,6.79-1.16"/><line class="cls-1" x1="90.21" y1="119.63" x2="91.42" y2="120.84"/><path class="cls-1" d="m9.9,67.75c0,.1-.08.18-.18.18s-.18-.08-.18-.18,2.84,1.92,2.94,1.92-2.57-2.02-2.57-1.92Z"/><path class="cls-1" d="m7.46,27.82c-.19-1.55,9.31-4.85,10.67-3.68"/><path class="cls-1" d="m31.51,31.65s2.13,3.1,6.49,2.52,3.2-2.52,3.2-2.52c0,0,.39-1.16,5.04,0s3.1-5.43,3.1-5.43"/><path class="cls-1" d="m8.66,114.06c3.42,1.26,6.3.86,6.3.86,0,0,3.61-1.38,4.25,2.34s3.13,3.17,3.13,3.17l2.61-2.57"/><path class="cls-1" d="m67.91,38.08c-.19-1.55,9.31-4.85,10.67-3.68"/><path class="cls-1" d="m122.21,107.86s2.13,3.1,6.49,2.52,3.2-2.52,3.2-2.52c0,0,.39-1.16,5.04,0s3.1-5.43,3.1-5.43"/><path class="cls-1" d="m62.57,51.13c-.19-2.23,9.31-6.98,10.67-5.31"/><path class="cls-1" d="m101.33,87.38s2.13,3.1,6.49,2.52,3.2-2.52,3.2-2.52c0,0,.39-1.16,5.04,0s3.1-5.43,3.1-5.43"/><path class="cls-1" d="m99.94,15.4c5.43-.19,9.89,1.75,8.34,3.49"/><path class="cls-1" d="m34.11,43.2c5.51,1.75,3.95,0,3.95,0"/><line class="cls-1" x1="47.5" y1="92.37" x2="49.2" y2="93.26"/><path class="cls-1" d="m68.95,69.18s.49,2.36,1.09,1.75"/><path class="cls-1" d="m97.76,53.19s2.13,3.1,6.49,2.52,3.2-2.52,3.2-2.52c0,0,.39-1.16,5.04,0s3.1-5.43,3.1-5.43"/><path class="cls-1" d="m65.36,116.79c5.43-.19,9.89,1.75,8.34,3.49"/><path class="cls-1" d="m78.77,102.16s2.13,3.1,6.49,2.52,3.2-2.52,3.2-2.52c0,0,.39-1.16,5.04,0s3.1-5.43,3.1-5.43"/><path class="cls-1" d="m128.23,57.77c5.43-.19,9.89,1.75,8.34,3.49"/><path class="cls-1" d="m120.96,102.92s4.27-5.04,10.08-2.91"/><path class="cls-1" d="m101.48,117.77c-.19-1.55,9.31-4.85,10.67-3.68"/><path class="cls-1" d="m26.4,114.98c3.3-1.55,5.04-3.88,5.04-3.88,0,0-1.9-5.07,1.55-3.54s7.56,2.16,7.56,2.16v-3.66"/><path class="cls-1" d="m114.72,42.98s4.27-5.04,10.08-2.91"/><path class="cls-1" d="m17.12,43.59c5.43-.19,9.89,1.75,8.34,3.49"/><path class="cls-1" d="m134.01,37.56s-.58-5.24,2.91-2.71"/><path class="cls-1" d="m12.79,76.57c5.43-.19,9.89,1.75,8.34,3.49"/><path class="cls-1" d="m33.94,55.75c5.43-.19,9.89,1.75,8.34,3.49"/><path class="cls-1" d="m4.78,61.22s4.27-5.04,10.08-2.91"/><circle class="cls-1" cx="12.18" cy="104.34" r=".19"/><path class="cls-1" d="m98.93,47.85c-.19-1.55,9.31-4.85,10.67-3.68"/><path class="cls-1" d="m22.81,25.34c-.19-1.55,9.31-4.85,10.67-3.68"/><path class="cls-1" d="m43.63,69.63c3.3-1.55,5.04-3.88,5.04-3.88,0,0,1.55-3.54,4.65-1.38s4.46,0,4.46,0v-3.66"/><path class="cls-1" d="m111.33,11.9s4.27-5.04,10.08-2.91"/><path class="cls-1" d="m18.31,14.68s4.27-5.04,10.08-2.91"/><path class="cls-1" d="m91.86,64.1c-4.06,1.14-8-.77-7.33-3.4"/><path class="cls-1" d="m107.39,24.03c-4.06,1.14-8-.77-7.33-3.4"/><path class="cls-1" d="m55.76,12.51c-4.06,1.14-8-.77-7.33-3.4"/><path class="cls-1" d="m116.38,108.86c-4.06,1.14-8-.77-7.33-3.4"/><path class="cls-1" d="m129.7,93.34c-4.06,1.14-8-.77-7.33-3.4"/><path class="cls-1" d="m24.69,51.41c-4.06,1.14-8-.77-7.33-3.4"/><path class="cls-1" d="m57.63,45.12c-4.06,1.14-8-.77-7.33-3.4"/><path class="cls-1" d="m66.21,27.87s2.13,1.36,0,1.75-3.68,1.94-5.04-1.75"/><path class="cls-1" d="m94.29,40.93s2.13,1.36,0,1.75-3.68,1.94-5.04-1.75"/><path class="cls-1" d="m16.6,100.01s2.13,1.36,0,1.75-3.68,1.94-5.04-1.75"/><path class="cls-1" d="m129.87,51.16s2.13,1.36,0,1.75-3.68,1.94-5.04-1.75"/><path class="cls-1" d="m104.78,35.85s-.58-5.24,2.91-2.71"/><path class="cls-1" d="m125.98,119.58s-.58-5.24,2.91-2.71"/><path class="cls-1" d="m124.56,88.37s-.57-4.18,2.86-2.17"/><path class="cls-1" d="m110.71,103.61s-.58-5.24,2.91-2.71"/><path class="cls-1" d="m102.83,85.19s-.58-5.24,2.91-2.71"/><path class="cls-1" d="m49.53,7.6s-.58-5.24,2.91-2.71"/><path class="cls-1" d="m65.49,8.77s-.58-5.24,2.91-2.71"/><path class="cls-1" d="m81.49,56.5s-.58-5.24,2.91-2.71"/><path class="cls-1" d="m134.01,86.72s-.58-5.24,2.91-2.71"/><path class="cls-1" d="m41.15,87.83s-.58-5.24,2.91-2.71"/><path class="cls-1" d="m38.49,14.61s-.58-5.24,2.91-2.71"/><path class="cls-1" d="m25.17,64.72s-.45-3.59,2.24-1.86"/><path class="cls-1" d="m37.02,75.29s-.58-3.59,2.91-1.86"/></svg>