<?xml version="1.0" encoding="UTF-8"?><svg id="Layer_2" xmlns="http://www.w3.org/2000/svg" width="212" height="213.38" viewBox="0 0 212 213.38"><defs><style>.cls-1,.cls-2,.cls-3,.cls-4{fill:#f2f2f2;}.cls-5,.cls-2{stroke-width:2px;}.cls-5,.cls-2,.cls-6,.cls-7,.cls-3,.cls-4{stroke-miterlimit:10;}.cls-5,.cls-7{fill:#fff;}.cls-5,.cls-7,.cls-4{stroke:#000;}.cls-2,.cls-6,.cls-3{stroke:#333;}.cls-6{fill:none;}.cls-6,.cls-7,.cls-3,.cls-4{stroke-width:.75px;}</style></defs><path class="cls-5" d="m28.45,11.35S19.45.35,77.45,1.35s66.94-.06,66.94-.06c0,0,44.62-2.94,39.34,10.06,0,0,28.72,115,26.72,132s-6,18-5,22,4,20-7,25-12.8,18.04-64,21c-12.78.74-102,6-119-17-8.08-10.94-13-16-12-22s-2-15-2-26S11.45,20.35,28.45,11.35Z"/><g><path class="cls-2" d="m19.45,91.35c17.89.51,45.09,67.09,12,107-8.17,9.86-16.5-11.5-23.5-21.5-1.81-2.59-.15-11.97-1-16-4-19-1.64-69.9,12.5-69.5Z"/><path class="cls-2" d="m189.45,89.35c-14.09-11.04-45.27,67.1-12.17,107.01,8.17,9.86,3.09,1.26,23.67-10.51,7-4-.05-21.42,2-25,8-14,5-57-13.5-71.5Z"/><path class="cls-3" d="m27.95,96.85s-7-2-9-1"/><path class="cls-3" d="m31.95,101.85s-9-2.17-13-.58"/><path class="cls-3" d="m34.69,106.69s-13.74-.84-16.74,1.16"/><path class="cls-3" d="m37.45,111.35s-18-1-21,1"/><path class="cls-3" d="m39.45,116.35s-22-1-25,1"/><path class="cls-3" d="m41.45,121.35s-24,0-28,2"/><path class="cls-3" d="m43.45,127.35s-23-.85-30,1.08"/><path class="cls-3" d="m44.45,133.35s-14-4-31,1.2"/><path class="cls-3" d="m45.45,137.35s-25,0-34,3"/><path class="cls-3" d="m46.45,144.35s-20-3-35,1.79"/><path class="cls-3" d="m46.45,150.06s-19-1.04-35,3.12"/><path class="cls-3" d="m46.45,158.11s-26-1.43-32,2.4"/><path class="cls-3" d="m45.45,165.56s-21-2.21-33,1.79"/><path class="cls-3" d="m43.45,173.61s-17-4.3-32,.72"/><path class="cls-3" d="m41.45,180.34s-12.77-4.01-25.39,0"/><path class="cls-3" d="m38.45,186.35s-8.64-2-17.82,0"/><path class="cls-3" d="m34.45,192.35s-5-1-9.82,0"/><path class="cls-3" d="m32.45,195.35s-2-1-5,0"/><path class="cls-3" d="m179.44,93.77s5.93-1.07,8.22,0"/><path class="cls-3" d="m176.78,97.69s9.67-2.35,12.67-.35"/><path class="cls-3" d="m173.87,102.63s12.05-1.72,16.31,0"/><path class="cls-3" d="m171.09,108.57s14.88-2.78,21.12,0"/><path class="cls-3" d="m169.45,114.35s11.34-3,25.67,0"/><path class="cls-3" d="m167.17,121.09s17.64-4.26,28.96,0"/><path class="cls-3" d="m165.45,128.35s22-4,32,1"/><path class="cls-3" d="m164.45,135.35s19-4,34,1"/><path class="cls-3" d="m163.45,146.35s24-2.75,34,1.13"/><path class="cls-3" d="m163.45,152.42s21-3.08,31,.92"/><path class="cls-3" d="m163.45,159.5s16-3.16,28,.84"/><path class="cls-3" d="m164.45,166.6s14-4.75,30,0"/><path class="cls-3" d="m166.45,173.35s13.36-4,29.68,0"/><path class="cls-3" d="m168.45,180.4s13-5.22,28-1.14"/><path class="cls-3" d="m173.24,190.37s3.21-3.02,14.21-1.02"/><path class="cls-3" d="m171.45,185.35s9-3.83,20-.92"/><path class="cls-3" d="m177.45,194.91s1.09-1.44,4.54,0"/><path class="cls-3" d="m163.45,140.9s20.7-2.45,34.5,0"/><path class="cls-6" d="m77.57,181.71s23.83,17.1,58.18,7.32"/><path class="cls-6" d="m75.51,114.53s33.19-5.65,58.77,7.39"/><path class="cls-6" d="m77.57,137.35s7.48-6,8.68-8"/><path class="cls-6" d="m79.57,146.42s7.79-5.01,13.34-11.54"/><path class="cls-6" d="m88.24,150.4s4.78-1.45,9-7.75"/><path class="cls-6" d="m96.23,151.4s4.26.3,5.24-3.88"/><path class="cls-1" d="m185.76,58.77l-83.18,4.08c-.09,0-.18,0-.27,0l-83.18-4.08c-1.78-.09-3.19-1.86-3.19-4.03v-7.86c0-2.23,1.49-4.03,3.32-4.03h166.35c1.84,0,3.32,1.8,3.32,4.03v7.86c0,2.16-1.41,3.94-3.19,4.03Z"/><path class="cls-5" d="m195.95,51.65l-22-6-27,7.2-35-3.6-36,3.6-38-3.6-28,3.6c-4.39,0,0-6.67,0-11.93l7-19.07c0-5.26,2.61-7,7-7l18-.4,30,3.6,27-3.6,29,2.4,35-5h16c4.39,0,9,3.74,9,9l6,16.4c0,5.26,6.39,14.4,2,14.4Z"/><line class="cls-7" x1="18.95" y1="52.85" x2="23.45" y2="58.35"/><line class="cls-7" x1="24.17" y1="52.09" x2="30.3" y2="58.65"/><line class="cls-7" x1="30.4" y1="50.96" x2="36.9" y2="57.45"/><line class="cls-7" x1="40.44" y1="50.86" x2="44.45" y2="55.35"/><line class="cls-7" x1="50.32" y1="51.79" x2="54.45" y2="56.35"/><line class="cls-7" x1="61.28" y1="52.85" x2="66.45" y2="57.35"/><line class="cls-7" x1="55.72" y1="51.79" x2="61.45" y2="58.35"/><line class="cls-7" x1="45.38" y1="50.86" x2="49.45" y2="56.35"/><line class="cls-7" x1="35.96" y1="50.86" x2="42.45" y2="57.35"/><line class="cls-7" x1="68.23" y1="53.57" x2="72.45" y2="58.35"/><line class="cls-7" x1="74.56" y1="54.03" x2="79.45" y2="59.35"/><line class="cls-7" x1="80.74" y1="53.57" x2="85.45" y2="58.35"/><line class="cls-7" x1="87.69" y1="52.85" x2="92.45" y2="58.35"/><line class="cls-7" x1="187.49" y1="50.19" x2="181.45" y2="56.35"/><line class="cls-7" x1="182.42" y1="49.07" x2="177.45" y2="54.35"/><line class="cls-7" x1="177.68" y1="47.58" x2="172.45" y2="53.35"/><line class="cls-7" x1="171.09" y1="47.31" x2="167.45" y2="53.35"/><line class="cls-7" x1="165.45" y1="49.32" x2="161.45" y2="55.35"/><line class="cls-7" x1="159.35" y1="50.86" x2="155.45" y2="57.35"/><line class="cls-7" x1="153.83" y1="51.81" x2="148.45" y2="58.35"/><line class="cls-7" x1="148.54" y1="53.52" x2="143.45" y2="59.35"/><line class="cls-7" x1="142.82" y1="54.03" x2="138.45" y2="59.35"/><line class="cls-7" x1="136.34" y1="52.85" x2="132.45" y2="58.35"/><line class="cls-7" x1="129.85" y1="52.17" x2="123.45" y2="59.35"/><line class="cls-7" x1="124.74" y1="51.73" x2="120.51" y2="56.91"/><line class="cls-7" x1="118.45" y1="51.35" x2="114.45" y2="57.35"/><path class="cls-4" d="m9.45,48.35s5-3.2,6-3"/><path class="cls-4" d="m10.74,42.85s3.71-2.5,6.71-2.5"/><path class="cls-4" d="m12.45,37.35s3-1.54,5-1.77"/><path class="cls-4" d="m14.45,32.35s1-1.45,4.5-1.22"/><path class="cls-4" d="m16.45,27.35s3.5-1.67,4.75-.84"/><path class="cls-4" d="m17.45,22.88s3.04-1.64,4.52-1.58"/><path class="cls-4" d="m17.45,19.35s3.54-1.62,5.77-1.31"/><path class="cls-4" d="m196.45,48.35s-2-3-5-3"/><path class="cls-4" d="m194.45,42.35s-1-2-4-3"/><path class="cls-4" d="m192.95,38.38s-3.5-2.64-4-2.34"/><path class="cls-4" d="m190.95,32.35s-2.5-2-4.5-2"/><path class="cls-4" d="m189.45,27.35s-2.96-2.42-4.98-2.71"/><path class="cls-4" d="m190.45,29.35s-4-2-5-2"/><path class="cls-4" d="m192.45,35.35s-2.93-2.1-4.96-2.05"/><path class="cls-4" d="m187.95,23.13s-2.5-1.78-4.5-1.78"/><path class="cls-4" d="m186.96,19.55s-2.56-2.6-4.54-2.41"/><path class="cls-4" d="m194.95,44.25s-1.5-1.9-4.5-1.4"/><path class="cls-4" d="m9.95,45.36s4.54-2.52,5.5-2.02"/><path class="cls-4" d="m10.45,40.35c2-1,4-2,7-3"/><path class="cls-4" d="m12.95,34.82s3.5-2.05,5.5-1.26"/><path class="cls-4" d="m14.95,29.62s2.5-2.28,5.5-1.28"/><path class="cls-4" d="m16.45,25.35s2.5-1.88,4.75-1.44"/></g></svg>