<?xml version="1.0" encoding="UTF-8"?><svg id="Layer_1" xmlns="http://www.w3.org/2000/svg" width="2.3cm" height="1.92cm" viewBox="0 0 65.2 54.4"><defs><style>.cls-1{fill:#fff;stroke:#e6e7e8;stroke-width:.5px;}.cls-1,.cls-2,.cls-3,.cls-4,.cls-5{stroke-miterlimit:10;}.cls-2{fill:#ee7373;stroke:#ee7373;}.cls-3{fill:#ee7273;stroke:#ee7273;}.cls-4{fill:#eb797d;stroke:#eb797d;}.cls-5{fill:#ed6a7b;stroke:#ed6a7b;}</style></defs><path class="cls-1" d="m48.61,27.56s-.51-2.2,4.01.02l-.09,2.66s-.02-2.34,1.04-2.32c1.14.02,2.34.41,3.14.73l.22,2.8s-.79-2.65.59-2.81c.42-.05,2.53.6,2.57,1.23.1,1.41,0,2.53,0,2.53-1.49-.48-7.47-1.83-11.5-2.92,0,0-.03-1.14,0-1.91Z"/><g><path class="cls-2" d="m58.08,3.27l.93,1.73c.02.12,1.66,4.65,1.66,4.65-.15,1.29-2.35,8.16-19.33,15.06C18.84,33.83,7.06,31.3,1.77,31.43c-.68.02-.64.23-.57-1.59l-.04-4.51c.02-.38,1.95-.63,1.95-.63,6.24-.91,36.67-5.04,53.88-20.04.69-.6.9-2.28,1.08-1.39Z"/><path class="cls-4" d="m1.51,23.13c-1.14,1.03-.24,2.91,1.27,2.65,6.98-1.19,19.77-3.62,30.33-7.49C57.46,9.36,60.03,3.67,57.1,2.13c-6.1-3.21-27.47-.89-32.86.23-.72.15-1.37.51-1.89,1.03-2.37,2.39-9.97,9.98-20.85,19.73Z"/></g><g><path class="cls-5" d="m6.62,36.63c-.87.4-.97,7.38-.02,7.51,6.31.88,13.24,1.57,25.63,1,26.22-1.21,34.67-7.5,30.87-10.54-5.38-4.31-29-7.56-34.4-6.46-.67.14-1.96.54-2.68.65-3.48.56-5.2,1.35-19.4,7.84Z"/><path class="cls-3" d="m63.97,39.56l-1.15,5.01c0,.1-.04.18-.08.27-.52.94-4.31,6.53-22.16,8.44-17.57,1.88-30.23-1.06-32.59-1.67-.25-.06-.44-.26-.5-.51l-1.72-6.88c-.01-.1.07-.19.17-.17,2.8.48,37.13,5.02,58.04-6.65.5-.28.06,1.59,0,2.16Z"/></g><path class="cls-1" d="m5.93,44.05s-3.22-6.67,4.22-4.67c.84.23.73,2.17.73,2.17,0,0-.12-1.35,1.88-1.99.48-.15,2.53-2.73,3.93,5.06,1.49-.49-3.26-4.77,1.96-6.21,2.67-.74,3.21.78,3.31,1.31,0,.02.1,2.44.11,2.43.07-.46.09-3.21,1.79-3.73,4.24-1.29,4.53,6.64,4.53,6.64,0,0-.61-6.34,2.73-7,5.7-1.13,4.87,6.66,4.87,6.66,0,0-.43-7.51,3.33-7.86,2.34-.21,3.14-.39,3.8,5.81.34,3.14-1.65-5.98,2.43-6.75,2.29-.43,3.87-.17,5.37,5.49.01.05-1.94-5.76-.25-6.51,1.59-.71,0,0,3.55-1.03.85-.25,2.93,5.61,2.93,5.61,0,0-3.02-5.65-.88-6.47s.75-.31,2.13-.81c.75-.27,2.25,5.83,2.25,5.83,0,0-2.08-5.85-.32-6.42l.34-.46c.17-.11,1.69,2.96,1.69,2.96,1.22,2.93,1.05,2.33,1.05,2.33,0,0-5.63,3.36-7.51,3.99-15.27,5.1-16.65,4.23-22.25,4.92-6.12.75-12.08.3-27.71-1.29Z"/><path class="cls-1" d="m.99,32.11s-.31,9.02,7.02,6.61c1.4-.46-.12-5.11-.12-5.11,0,0,1.02,5.05,3.24,4.2,2.59-.99,4.99.57,2.21-6.84,1.53-.34-.26,6.87,4.92,5.27,4.17-1.29,2.66-3.84,2.66-3.84,0,0,.88,2.68,2.86,2.61,6.34-.22,2.37-6.94,2.37-6.94,0,0,2.33,5.56,5.73,5.51,4.04-.06.99-6.98.99-6.98,0,0,2.44,6.54,6.39,5.63,2.29-.53,1.01-4.67.03-7.41-1.08-3.02,3.65,10.28,7.43,5.52,1.45-1.82,2.25-1.99-.03-8.69-.02-.05.05-.07.08-.03.82,1.54,3.74,6.64,5.85,5.95,4.95-1.62-.79-9.57-.79-9.57,0,0,3.77,6.8,6.03,6.43s2.36-1.63,3.12-2.81c.43-.67-3.45-7.35-3.45-7.35,0,0,4.27,7.36,5.71,6.28l.93-.84c.12-2.98-3.1-9.45-3.1-9.45,0,0-1.55,1.75-3.04,3.06-4.6,4.04-9.94,7.18-14.63,9.29-10.71,4.81-29.62,9.31-42.41,9.49Z"/><path class="cls-1" d="m61.44,29.93s2.82,4.32,2.74,5.6-.77.91-.77.91l-2.74-5.29s.03-1.64.77-1.22Z"/></svg>