<?xml version="1.0" encoding="UTF-8"?><svg id="Layer_1" xmlns="http://www.w3.org/2000/svg" width="1.5cm" height="1cm" viewBox="0 0 42.52 28.35"><defs><style>.cls-1{fill:#ed1c24;stroke:#be1e2d;}.cls-1,.cls-2,.cls-3,.cls-4{stroke-miterlimit:10;}.cls-1,.cls-4{stroke-width:.5px;}.cls-2{fill:#39b54a;stroke-width:.25px;}.cls-2,.cls-4{stroke:#009444;}.cls-3{fill:#fbd5e0;stroke:#e97aa2;}.cls-4{fill:none;}</style></defs><path class="cls-3" d="m2.83,3.32s17.4,4.93,36.94,0c0,0,.44-.32-.13,1.36l-9.26,1.74c-.73.21-5.96,1.84-6.27,18-.01.54-.04.75-1.23.58-1.38-.19-2.4.55-2.81-.58-.73-2.02-1.73-15.72-8.9-17.99-4.21-1.33-8.31-1.72-8.31-1.72,0,0-.62-.76-.04-1.38Z"/><path class="cls-4" d="m20.69,10.74s.15-3.03,1.6-3.22c0,0-.46,3.03.48,3.5"/><path class="cls-2" d="m22.36,7.52s.1,1.07,1.04,1.23c0,0,.15-1.23-1.04-1.23Z"/><circle class="cls-1" cx="22.57" cy="11.73" r=".84"/><circle class="cls-1" cx="20.69" cy="11.45" r=".89"/></svg>