<?xml version="1.0" encoding="UTF-8"?><svg id="Layer_1" xmlns="http://www.w3.org/2000/svg" width="3.5cm" height="2cm" viewBox="0 0 99.21 56.69"><defs><style>.cls-1{fill:#231f20;stroke:#f6adc8;stroke-width:2px;}.cls-1,.cls-2{stroke-miterlimit:10;}.cls-2{fill:#fff;stroke:#fff;}</style></defs><path class="cls-1" d="m6.31,4.41c-.02-2.66,21.02,5.22,88.01,1.48,0,0,2.88.16,1.02,3.98l-16.18.5c-2.5.45-20.41,4.04-20.74,41.03-.01,1.24-.1,1.71-4.2,1.29-4.74-.48-8.22,1.18-9.68-1.41-2.61-4.65-6.63-36.05-31.36-41.46-14.51-3.18-8.86-1.7-8.86-1.7,0,0,.04-2.28,1.98-3.69Z"/><g><path class="cls-2" d="m32.91,9.23c.16-.11.34-.17.54-.17.12,0,.2.01.26.04.55-.2,1.12-.36,1.73-.49.61-.13,1.21-.19,1.82-.19.4,0,.8.03,1.18.1s.75.18,1.11.34c.39.16.74.37,1.06.63.32.26.58.54.8.85.22.31.39.64.51.99.12.35.18.7.18,1.05,0,.68-.22,1.3-.67,1.87-.48.59-1.06,1.07-1.75,1.43-.69.36-1.48.56-2.38.62-.17.01-.35.02-.53.03s-.35,0-.51,0c-.33,0-.66-.01-.97-.04-.32-.02-.63-.05-.95-.09v1.5c0,.56,0,1.06.02,1.5-.01.27-.11.47-.29.6-.18.13-.38.2-.59.2-.2,0-.39-.06-.56-.18-.17-.12-.28-.31-.33-.57v-3.41s-.09-.01-.15-.04c-.22-.09-.37-.2-.48-.33-.1-.13-.15-.26-.15-.38,0-.15.07-.29.2-.41.13-.12.32-.21.56-.25v-4.69c.07-.23.19-.41.35-.52Zm5.79.88c-.45-.19-.94-.28-1.47-.28-.5,0-1.01.06-1.51.18-.5.12-.96.26-1.38.43v4.3c.3.06.61.1.91.13.3.03.61.04.93.04s.61-.02.91-.05c.42-.06.83-.14,1.24-.25.41-.11.77-.3,1.09-.57.29-.26.5-.54.65-.84.14-.3.22-.61.22-.91,0-.44-.13-.86-.4-1.25s-.66-.7-1.18-.94Z"/><path class="cls-2" d="m46.25,18.64c.26.15.41.32.45.52.04.19.01.36-.1.5-.11.14-.27.24-.5.3-.22.06-.48.03-.77-.09-.13-.07-.26-.14-.39-.21-.13-.07-.27-.14-.41-.21-.13-.09-.22-.18-.26-.26-.04-.08-.08-.2-.11-.35v-9.71c.06-.22.17-.39.33-.51.17-.12.34-.18.52-.18.18,0,.36.04.53.15.17.11.3.27.39.49v9.41s.09.05.14.08c.05.03.1.06.16.08Z"/><path class="cls-2" d="m56.93,18.72s0,.02-.02.02c.09.16.11.32.07.46-.04.14-.13.25-.25.34-.12.09-.28.14-.48.17s-.41-.01-.64-.11c-.13-.1-.25-.22-.37-.34-.12-.12-.22-.25-.3-.38-.29.2-.6.38-.93.55-.33.17-.66.26-1,.27-.58.02-1.15.03-1.71.02-.56-.01-1.09-.16-1.6-.46-.42-.25-.74-.54-.96-.88-.22-.34-.37-.7-.43-1.08-.06-.38-.06-.77.01-1.16s.2-.78.37-1.14c.07-.16.17-.32.28-.47.12-.15.23-.31.35-.47.16-.23.34-.45.54-.66s.43-.38.69-.53c.19-.1.37-.21.55-.31.18-.11.36-.2.55-.3.13-.07.33-.14.59-.22.27-.08.55-.14.87-.19.31-.05.62-.08.93-.08s.57.04.79.11c.2-.02.4.02.59.12.19.11.34.27.44.51,0,.79,0,1.59-.02,2.4-.01.8.05,1.6.2,2.4.01.11.07.23.16.38.09.15.19.29.3.43.11.14.21.27.29.39.09.12.13.19.13.23Zm-2.75-1.21s.05-.02.06-.04c.01-.01.04-.02.07-.03-.19-.7-.28-1.43-.27-2.18,0-.75.02-1.44.03-2.07-.13,0-.27.01-.43.03-.16.02-.31.06-.46.1s-.29.08-.41.11c-.12.03-.21.06-.27.09-.43.16-.8.38-1.1.64s-.55.55-.75.88c-.19.32-.34.66-.44,1.01-.1.36-.15.71-.15,1.08.03.09.07.19.11.28.04.09.08.19.11.28.07.06.15.12.23.19.08.07.16.13.25.19.13.05.26.09.39.12l.39.11c.25,0,.48,0,.71.02.23.01.46-.01.69-.07.22-.12.43-.23.64-.35.21-.12.41-.24.62-.38Z"/><path class="cls-2" d="m65.93,11.99c.12-.16.24-.28.39-.35s.3-.1.45-.1c.25,0,.45.08.61.23.16.15.24.36.24.63-.3.95-.69,1.86-1.15,2.75-.46.89-.97,1.76-1.51,2.61s-1.12,1.69-1.73,2.53c-.6.83-1.2,1.68-1.77,2.53-.12.13-.25.22-.39.27-.14.05-.28.08-.41.08-.22,0-.4-.06-.56-.19-.16-.13-.24-.31-.24-.54v-.11s0-.08.02-.13c.48-.71.97-1.41,1.47-2.1.5-.69,1-1.38,1.47-2.08-.58-.37-1.1-.75-1.56-1.15-.46-.39-.88-.8-1.24-1.24s-.69-.91-.96-1.42c-.27-.51-.51-1.06-.71-1.65,0-.3.08-.53.23-.69s.36-.24.62-.24c.19,0,.36.05.53.15.17.1.28.26.36.48.16.49.35.94.57,1.36s.48.8.78,1.15c.29.36.63.69.99,1.02.37.32.77.63,1.22.94.48-.76.91-1.52,1.31-2.29s.72-1.58.98-2.42Z"/></g></svg>