<?xml version="1.0" encoding="UTF-8"?><svg id="Layer_1" xmlns="http://www.w3.org/2000/svg" width="175" height="468" viewBox="0 0 175 468"><defs><style>.cls-1{fill:none;stroke:#000;stroke-miterlimit:10;stroke-width:3px;}</style></defs><path class="cls-1" d="m135.77,123.72c24.34-44.22,30.43-65.17,9.3-100.75-18.36-30.92-22.76-3.15-22.76-3.15,0,0,9.76-20.88-14.91-19.01-24.67,1.87-52.19,29.04-39.21,89.23,12.98,60.19-19.11,87.72-16.19,197.67,2.92,109.95,21.48,56.4,15.45,67.33-6.03,10.92,42.22,5.5,45.01-11.62,27.02-165.83,16.12-206.66,23.3-219.7Z"/><ellipse class="cls-1" cx="122.31" cy="388.21" rx="66.79" ry="47.36" transform="translate(-268.53 501.83) rotate(-88.72)"/><ellipse class="cls-1" cx="47.01" cy="394.88" rx="44.55" ry="72.42"/><path class="cls-1" d="m149.24,360.7s13.84-28.32,16.85-25.39"/><path class="cls-1" d="m157.67,381.29c11.08-6.94,16.85-10.76,16.85-10.76"/><path class="cls-1" d="m149.28,381.29c-2.09-4.22,9.77-23.9,9.77-23.9"/><path class="cls-1" d="m21.66,353.9s-5.42-33.54-12.04-31.44"/><path class="cls-1" d="m26.24,386.36c.12-5.06-4.21-21.83-6.58-26.77"/><path class="cls-1" d="m12.03,388.21s-5.71-29.57-11.61-26.62"/><path class="cls-1" d="m16.71,381.29s-4.13-34.39-9.46-39.82"/><path class="cls-1" d="m97.57,418.43c-1.15,1.12-5.15,13.5-5.15,13.5"/><path class="cls-1" d="m96.24,435.57c2.53-6.36,10.54-11.15,10.54-11.15"/><path class="cls-1" d="m130.45,124.97s-20.19,12.55-55.47-13.8"/><path class="cls-1" d="m92.42,152.36s-7.43,0-11.94,17.48c-.98,3.77-1.82,8.36-2.42,13.94"/><path class="cls-1" d="m98.79,197.12s6.28,18.06,3.38,30.63c-2.9,12.57-7.21,10.21-9.4,25.92-2.19,15.71,2.58,34.56,1.89,38.48"/></svg>