<?xml version="1.0" encoding="UTF-8"?><svg id="Layer_1" xmlns="http://www.w3.org/2000/svg" viewBox="0 0 530 150"><defs><style>.cls-1{fill:#f6adc8;}.cls-2{fill:#fff;stroke:#f6adc8;stroke-miterlimit:10;}</style></defs><g><rect x="2.5" y="2.5" width="525" height="145" rx="28.27" ry="28.27"/><path class="cls-1" d="m499.23,5c14.21,0,25.77,11.56,25.77,25.77v88.46c0,14.21-11.56,25.77-25.77,25.77H30.77c-14.21,0-25.77-11.56-25.77-25.77V30.77c0-14.21,11.56-25.77,25.77-25.77h468.46m0-5H30.77C13.78,0,0,13.78,0,30.77v88.46c0,16.99,13.78,30.77,30.77,30.77h468.46c16.99,0,30.77-13.78,30.77-30.77V30.77c0-16.99-13.78-30.77-30.77-30.77h0Z"/></g><g><path class="cls-2" d="m127.56,41.12c-1.91,0-4.85-.19-8.83-.57-3.87-.35-6.82-.51-8.83-.48h-2.75c.08,4.4.43,11.53,1.05,21.41.57,9.21.85,16.36.85,21.45,0,1.12.09,2.8.27,5.06.18,2.26.27,3.97.27,5.11,0,2.17-.28,4.03-.85,5.59-.72,2.1-1.85,3.15-3.37,3.15-1.03,0-1.96-.45-2.79-1.34-.83-.89-1.24-2.04-1.24-3.44,0-.48.06-1.19.19-2.15.13-.96.19-1.67.19-2.15,0-1.56-.08-3.9-.25-7.02-.17-3.12-.25-5.48-.25-7.07,0-4.55-.3-10.96-.89-19.21-.62-8.92-.97-15.32-1.05-19.21l-3.52.05c-5.65,0-10.09-.51-13.32-1.53-2.09-.67-3.14-2.25-3.14-4.73,0-1.31.33-2.45,1.01-3.44.77-1.11,1.77-1.62,2.98-1.53.9.06,2.97.35,6.2.86,2.58.38,4.67.57,6.27.57s3.9-.04,7.05-.12c3.15-.08,5.5-.12,7.05-.12,1.99,0,4.94.18,8.85.53,3.91.35,6.86.53,8.85.53,1.11,0,2.04.47,2.79,1.41.75.94,1.12,2.11,1.12,3.51s-.37,2.52-1.12,3.46c-.75.94-1.68,1.41-2.79,1.41Z"/><path class="cls-2" d="m164.24,66.16c-.18,3.98-1.47,5.97-3.87,5.97-2.22,0-3.33-1.58-3.33-4.73,0-.6-.04-1.72-.12-3.34l-.12-4.01c-4.08.61-7.35,2.02-9.8,4.25-2.3,2.07-4.21,5.19-5.73,9.36l.08,26.18c0,3.22-1.28,4.83-3.83,4.83-2.27,0-3.41-1.61-3.41-4.83v-33.54c0-1.05.03-2.63.1-4.73.06-2.1.1-3.68.1-4.73,0-3.22,1.14-4.83,3.41-4.83,2.53,0,3.81,2.64,3.83,7.93,4.96-5.89,10.46-8.84,16.5-8.84,2.09,0,3.65.97,4.69,2.91,1.03,1.94,1.55,4.87,1.55,8.79,0,1.66-.01,2.77-.04,3.34Z"/><path class="cls-2" d="m205.98,58.85l-13.4,35.74c-3.3,8.7-5.83,15.97-7.59,21.83l-2.56,9.27c-.67,2.29-1.83,3.44-3.49,3.44-1.08,0-2.02-.44-2.81-1.31-.79-.88-1.18-1.97-1.18-3.27,0-3.19,2.79-12.41,8.36-27.66l-13.86-32.92-1.74-3.49c-.7-1.46-1.05-2.69-1.05-3.68,0-1.31.41-2.45,1.22-3.44.81-.99,1.72-1.48,2.73-1.48,1.19,0,2.1.56,2.75,1.67,4.39,7.52,9.1,18.22,14.14,32.11l5.73-16.48c2.07-5.7,4.05-10.61,5.96-14.72.83-1.78,1.91-2.68,3.25-2.68,1.06,0,1.99.46,2.81,1.39.81.92,1.22,2.02,1.22,3.3,0,.7-.17,1.5-.5,2.39Z"/><path class="cls-2" d="m280.22,102.9c-2.38,0-4.44-3.76-6.2-11.28-.67-2.87-1.51-7.88-2.52-15.05-2.63.45-6.08,1.24-10.34,2.39l-10.3,2.63c-1.29,4.17-3.5,10.27-6.62,18.3-.83,1.78-1.95,2.68-3.37,2.68-1.03,0-1.96-.46-2.77-1.39-.81-.92-1.22-2.07-1.22-3.44,0-1.53,1.95-7.34,5.85-17.44-.44-.83-.66-1.78-.66-2.87,0-2.58,1.26-4.24,3.8-4.97,2.94-6.82,6.66-14.65,11.15-23.51,6.12-12.07,9.93-18.11,11.42-18.11,2.04,0,3.43,1.75,4.18,5.26l2.44,16.05,5.77,33.21,2.21,7.55c.75,2.58,1.12,4.3,1.12,5.16,0,1.37-.4,2.52-1.2,3.44s-1.72,1.39-2.75,1.39Zm-13.67-54.61l-11.08,22.03c3.12-.99,7.86-2.18,14.21-3.58l-3.14-18.44Z"/><path class="cls-2" d="m327.08,80.88l-.89,16.05c-.15,6.37-.68,11.58-1.59,15.62-1.16,5.16-3.02,8.97-5.58,11.42-3.1,2.96-7.58,4.44-13.44,4.44-3.43,0-6.31-.29-8.64-.86-3.25-.8-4.88-2.45-4.88-4.97,0-2.83,1.12-4.25,3.37-4.25.93,0,2.48.28,4.65.84,2.17.56,4.57.8,7.2.74,4.96-.1,8.38-3.06,10.26-8.89,1.24-3.89,1.9-9.86,1.98-17.92-1.39,3.19-3.05,5.57-4.98,7.17-1.92,1.59-4.12,2.39-6.6,2.39-4.67,0-8.47-1.97-11.4-5.9-2.93-3.93-4.4-9.04-4.4-15.31,0-8.6,2-15.53,6-20.78,4.13-5.41,9.76-8.12,16.88-8.12,2.4,0,4.41.38,6.04,1.15s2.87,1.91,3.72,3.44c2.76.1,4.14,1.99,4.14,5.69,0,2.26-.27,5.29-.81,9.08-.59,4.4-.94,7.39-1.05,8.98Zm-12.43-20.69c-4.91,0-8.7,2.09-11.39,6.26-2.4,3.76-3.6,8.54-3.6,14.33,0,4.62.71,8.09,2.13,10.42,1.42,2.33,3.55,3.49,6.39,3.49,2.61,0,5.14-1.82,7.59-5.45,2.22-3.34,3.49-6.66,3.79-9.94.54-3.44,1.12-8.84,1.74-16.2-1.03-.99-2.1-1.72-3.21-2.2-1.11-.48-2.26-.72-3.45-.72Z"/><path class="cls-2" d="m367.55,104.62c-.49,0-1.38-.7-2.67-2.1-1.16-1.31-2.03-2.47-2.59-3.49-2.48,1.66-4.66,2.91-6.54,3.75-1.89.84-3.46,1.27-4.72,1.27-6.04,0-10.44-2.1-13.21-6.31-2.61-3.95-3.91-10-3.91-18.16,0-7.71,2.15-14.3,6.45-19.78,4.3-5.48,9.43-8.22,15.39-8.22,2.25,0,4.76.72,7.55,2.15,3.51,1.78,5.27,3.93,5.27,6.45,0,.86-.26,1.62-.77,2.29-.26,1.21-.46,3.2-.6,5.97-.14,2.77-.23,6.32-.25,10.65-.03,3.95.19,7.07.66,9.36.26,1.4,1.07,4.21,2.44,8.41.18.57.48,1.42.89,2.53l.23.81c0,1.27-.36,2.32-1.08,3.15-.72.83-1.56,1.24-2.52,1.24Zm-8.05-33.21c0-1.37.07-2.86.21-4.47.14-1.61.35-3.32.64-5.14-.96-.6-1.78-1.05-2.46-1.34s-1.23-.43-1.65-.43c-4,0-7.46,2.02-10.36,6.04-2.9,4.03-4.36,8.67-4.36,13.93s.75,9.14,2.25,11.75c1.5,2.61,3.74,3.92,6.74,3.92,2.48,0,4.58-.56,6.31-1.67.93-.61,2.23-1.82,3.91-3.63-.83-8.44-1.24-14.76-1.24-18.97Z"/><path class="cls-2" d="m387.02,79.78c0,1.91.04,4.77.14,8.58.09,3.81.14,6.67.14,8.58,0,1.4-.35,2.55-1.05,3.44s-1.61,1.34-2.75,1.34-2.02-.45-2.73-1.34c-.71-.89-1.06-2.04-1.06-3.44,0-1.91-.05-4.77-.14-8.58-.09-3.81-.14-6.67-.14-8.58,0-2.99.13-6.73.39-11.2.26-4.48.39-8.21.39-11.2,0-1.43.35-2.6,1.06-3.49.71-.89,1.62-1.34,2.73-1.34s2.02.45,2.73,1.34c.71.89,1.06,2.05,1.06,3.49,0,2.99-.13,6.73-.39,11.2-.26,4.48-.39,8.21-.39,11.2Zm-1.74-38.8c-1.24,0-2.31-.54-3.21-1.62-.9-1.08-1.36-2.39-1.36-3.92s.45-2.83,1.36-3.92c.9-1.08,1.97-1.62,3.21-1.62s2.3.54,3.19,1.62c.89,1.08,1.34,2.39,1.34,3.92s-.45,2.84-1.34,3.92c-.89,1.08-1.96,1.62-3.19,1.62Z"/><path class="cls-2" d="m429.82,104.86c-2.22,0-3.47-1.5-3.76-4.49l-1.08-10.46c-.36-3.73-.54-7.21-.54-10.46,0-.89.04-2.4.14-4.54.09-2.13.14-3.65.14-4.54,0-6.88-1.03-10.32-3.1-10.32-2.89,0-5.65,2.12-8.29,6.35-2.38,3.85-4.23,8.73-5.58,14.62-.05,1.24-.17,2.8-.35,4.68-.15,1.59-.23,3.14-.23,4.63,0,.96.08,2.39.23,4.3.16,1.91.23,3.34.23,4.3,0,1.43-.35,2.6-1.06,3.49-.71.89-1.62,1.34-2.73,1.34s-2.05-.45-2.75-1.34c-.7-.89-1.05-2.05-1.05-3.49,0-.96-.08-2.39-.25-4.3-.17-1.91-.25-3.34-.25-4.3,0-3.28.19-7.83.56-13.64.37-5.81.56-10.36.56-13.64,0-1.02-.05-2.53-.14-4.54-.09-2.01-.14-3.52-.14-4.54,0-1.37.37-2.49,1.1-3.37.74-.88,1.65-1.31,2.73-1.31,2.38,0,3.68,2.07,3.91,6.21l.12,5.59c4.34-7.13,8.79-10.7,13.36-10.7,4.13,0,7.01,2.25,8.64,6.74,1.11,2.99,1.72,7.42,1.82,13.28v4.83l-.04,4.44c0,2.64.28,6.06.83,10.25.55,4.19.83,7.59.83,10.2,0,1.4-.37,2.54-1.1,3.42-.74.88-1.66,1.31-2.77,1.31Z"/><path class="cls-2" d="m449.1,100.37c0,1.15-.37,2.14-1.1,2.99-.74.84-1.57,1.27-2.5,1.27-1.03,0-2.07-.83-3.1-2.48-1.01-1.56-1.51-2.99-1.51-4.3,0-1.15.37-2.13,1.1-2.96.74-.83,1.58-1.24,2.54-1.24,1.01,0,2.04.83,3.1,2.48.98,1.56,1.47,2.98,1.47,4.25Zm-.04-71.33v53.18c0,2.83-1.15,4.25-3.45,4.25s-3.45-1.42-3.45-4.25c0-1.31-.03-3.26-.1-5.85s-.1-4.53-.1-5.81c0-4.62.03-11.54.1-20.76s.1-16.14.1-20.76c0-2.83,1.15-4.25,3.45-4.25s3.45,1.42,3.45,4.25Z"/></g></svg>